<svg width="181" height="287" viewBox="0 0 181 287" fill="none" xmlns="http://www.w3.org/2000/svg">
<g style="mix-blend-mode:lighten" opacity="0.12" clip-path="url(#clip0_8_110)">
<path d="M143.598 0C64.2155 0 0 64.2155 0 143.598C0 222.784 64.2155 287.197 143.598 287.197C222.784 287.197 287.197 222.981 287.197 143.598C287 64.2155 222.784 0 143.598 0ZM143.598 277.939C69.337 277.939 9.25806 217.86 9.25806 143.598C9.25806 69.337 69.337 9.25806 143.598 9.25806C217.86 9.25806 277.939 69.337 277.939 143.598C277.939 217.663 217.663 277.939 143.598 277.939Z" fill="#95FFE5"/>
<path d="M143.6 30.926C81.5508 30.926 31.1239 81.3529 31.1239 143.402C31.1239 205.45 81.5508 255.877 143.6 255.877C205.648 255.877 256.075 205.647 256.075 143.599C256.075 81.3529 205.648 30.926 143.6 30.926ZM143.6 238.74C91.0058 238.74 48.2612 195.995 48.2612 143.402C48.2612 90.808 91.0058 48.0633 143.6 48.0633C196.193 48.0633 238.938 90.808 238.938 143.402C238.938 195.995 196.193 238.74 143.6 238.74Z" fill="#95FFE5"/>
</g>
<defs>
<clipPath id="clip0_8_110">
<rect width="287" height="287" fill="white"/>
</clipPath>
</defs>
</svg>
