<svg width="181" height="287" viewBox="0 0 181 287" fill="none" xmlns="http://www.w3.org/2000/svg">
<g style="mix-blend-mode:lighten" opacity="0.12" clip-path="url(#clip0_4_731)">
<path d="M37.5985 0C-41.7845 0 -106 64.2155 -106 143.598C-106 222.784 -41.7845 287.197 37.5985 287.197C116.784 287.197 181.197 222.981 181.197 143.598C181 64.2155 116.784 0 37.5985 0ZM37.5985 277.939C-36.663 277.939 -96.7419 217.86 -96.7419 143.598C-96.7419 69.337 -36.663 9.25806 37.5985 9.25806C111.86 9.25806 171.939 69.337 171.939 143.598C171.939 217.663 111.663 277.939 37.5985 277.939Z" fill="#95FFE5"/>
<path d="M37.5995 30.9261C-24.4492 30.9261 -74.8761 81.353 -74.8761 143.402C-74.8761 205.45 -24.4492 255.877 37.5995 255.877C99.6483 255.877 150.075 205.647 150.075 143.599C150.075 81.353 99.6483 30.9261 37.5995 30.9261ZM37.5995 238.74C-14.9942 238.74 -57.7388 195.995 -57.7388 143.402C-57.7388 90.808 -14.9942 48.0633 37.5995 48.0633C90.1932 48.0633 132.938 90.808 132.938 143.402C132.938 195.995 90.1932 238.74 37.5995 238.74Z" fill="#95FFE5"/>
</g>
<defs>
<clipPath id="clip0_4_731">
<rect width="287" height="287" fill="white" transform="translate(-106)"/>
</clipPath>
</defs>
</svg>
