<svg width="421" height="452" viewBox="0 0 421 452" fill="none" xmlns="http://www.w3.org/2000/svg">
<path d="M264.355 13.0292L293.639 46.1264L323.071 232.701H46.9966L264.355 13.0292Z" fill="#FFCF2D"/>
<path d="M293.891 45.8664L264.518 12.6652L269.431 6.68696C276.667 -2.11585 289.703 -1.11081 297.22 7.34544C304.737 15.819 306.054 31.0853 298.818 39.8881L293.891 45.8664Z" fill="white"/>
<path d="M293.906 46.5942L263.897 12.6825L269.12 6.32303C272.642 2.0256 277.658 -0.209763 283.252 0.0155058C288.608 0.240775 293.817 2.77072 297.546 6.96418C301.275 11.1576 303.628 17.1706 304.012 23.4435C304.412 29.9763 302.68 35.9372 299.159 40.2347L293.906 46.5942ZM265.14 12.6479L293.876 45.1213L298.493 39.5242C301.852 35.452 303.48 29.7683 303.11 23.5301C302.74 17.4998 300.49 11.7468 296.91 7.72663C293.329 3.70645 288.342 1.28048 283.207 1.07254C277.88 0.847269 273.101 2.97866 269.756 7.05082L265.14 12.6479Z" fill="#FFCF2D"/>
<path d="M298.804 40.4079C298.685 40.4079 298.582 40.3559 298.493 40.2693L269.105 7.06815C268.928 6.86021 268.928 6.54829 269.091 6.34035C269.268 6.13241 269.549 6.13241 269.712 6.32302L299.1 39.5242C299.277 39.7321 299.277 40.044 299.114 40.252C299.04 40.3559 298.922 40.4079 298.804 40.4079Z" fill="#FFCF2D"/>
<path d="M355.566 231.8C355.507 231.8 355.448 231.782 355.389 231.748C355.167 231.626 355.063 231.315 355.167 231.055L396.377 123.411L315.806 8.55839V8.54106C314.282 6.11509 312.047 4.55554 309.502 4.12233C306.957 3.68912 304.427 4.4689 302.385 6.3057L299.1 9.25153C298.907 9.42481 298.626 9.39015 298.478 9.14755C298.33 8.92229 298.36 8.59304 298.567 8.41976L301.852 5.47394C304.086 3.48118 306.853 2.63209 309.635 3.09995C312.417 3.56782 314.859 5.266 316.516 7.91724L397.413 123.255L397.295 123.549L355.966 231.488C355.892 231.678 355.729 231.8 355.566 231.8Z" fill="#3FB1B5"/>
<path d="M395.578 129.216C398.079 129.216 400.107 126.842 400.107 123.914C400.107 120.985 398.079 118.611 395.578 118.611C393.078 118.611 391.05 120.985 391.05 123.914C391.05 126.842 393.078 129.216 395.578 129.216Z" fill="white"/>
<path d="M395.578 129.736C392.841 129.736 390.607 127.119 390.607 123.914C390.607 120.708 392.841 118.091 395.578 118.091C398.316 118.091 400.55 120.708 400.55 123.914C400.55 127.119 398.316 129.736 395.578 129.736ZM395.578 119.131C393.329 119.131 391.494 121.28 391.494 123.914C391.494 126.548 393.329 128.696 395.578 128.696C397.828 128.696 399.663 126.548 399.663 123.914C399.663 121.28 397.828 119.131 395.578 119.131Z" fill="#FFCF2D"/>
<path d="M344.083 219.219H366.146C372.494 219.219 377.629 225.25 377.629 232.666V233.047H332.586V232.666C332.601 225.25 337.735 219.219 344.083 219.219Z" fill="white"/>
<path d="M378.073 233.567H332.142V232.666C332.157 224.972 337.513 218.699 344.084 218.699H366.146C372.716 218.699 378.073 224.972 378.073 232.666V233.567ZM333.03 232.527H377.185C377.126 225.457 372.199 219.739 366.146 219.739H344.084C338.046 219.739 333.104 225.457 333.03 232.527Z" fill="#FFCF2D"/>
<path d="M237.202 193.695H97.5295C92.2765 193.695 88.0296 188.721 88.0296 182.57V68.1679C88.0296 62.0163 92.2765 57.0431 97.5295 57.0431H237.202C242.455 57.0431 246.702 62.0163 246.702 68.1679V182.553C246.717 188.704 242.455 193.695 237.202 193.695Z" fill="white"/>
<path d="M237.202 194.214H97.5296C92.0398 194.214 87.5858 188.999 87.5858 182.57V68.1679C87.5858 61.7391 92.0398 56.5233 97.5296 56.5233H237.202C242.692 56.5233 247.146 61.7391 247.146 68.1679V182.553C247.161 185.654 246.125 188.583 244.246 190.783C242.366 193.002 239.866 194.214 237.202 194.214ZM97.5296 57.563C92.5429 57.563 88.4736 62.3283 88.4736 68.1679V182.57C88.4736 188.409 92.5429 193.175 97.5296 193.175H237.202C239.629 193.175 241.908 192.066 243.624 190.056C245.326 188.046 246.273 185.377 246.258 182.553V68.1679C246.258 62.3283 242.189 57.563 237.202 57.563H97.5296Z" fill="#3FB1B5"/>
<path d="M237.291 183.055H98.965C96.9082 183.055 95.2509 181.097 95.2509 178.705V69.2595C95.2509 66.8508 96.923 64.91 98.965 64.91H237.291C239.348 64.91 241.005 66.8681 241.005 69.2595V178.688C241.02 181.097 239.348 183.055 237.291 183.055Z" fill="#66B0F0"/>
<path d="M237.291 183.575H98.9651C96.6715 183.575 94.807 181.391 94.807 178.705V69.2595C94.807 66.5736 96.6715 64.3902 98.9651 64.3902H237.291C239.585 64.3902 241.449 66.5736 241.449 69.2595V178.688C241.464 179.988 241.035 181.218 240.25 182.136C239.451 183.055 238.416 183.575 237.291 183.575ZM98.9651 65.4299C97.1598 65.4299 95.6949 67.1454 95.6949 69.2595V178.705C95.6949 180.82 97.1598 182.535 98.9651 182.535H237.291C238.164 182.535 238.993 182.136 239.614 181.409C240.236 180.681 240.561 179.728 240.561 178.705V69.2595C240.561 67.1454 239.096 65.4299 237.291 65.4299H98.9651Z" fill="#66B0F0"/>
<path d="M103.922 75.6539H101.732C100.77 75.6539 99.9861 74.7355 99.9861 73.6092V71.0446C99.9861 69.9182 100.77 68.9998 101.732 68.9998H103.922C104.884 68.9998 105.668 69.9182 105.668 71.0446V73.6092C105.653 74.7528 104.884 75.6539 103.922 75.6539ZM101.732 70.0395C101.259 70.0395 100.874 70.4901 100.874 71.0446V73.6092C100.874 74.1637 101.259 74.6142 101.732 74.6142H103.922C104.396 74.6142 104.766 74.1637 104.78 73.5918V71.0446C104.78 70.4901 104.396 70.0395 103.922 70.0395H101.732Z" fill="white"/>
<path d="M113.881 75.6539H111.691C110.729 75.6539 109.945 74.7355 109.945 73.6092V71.0446C109.945 69.9182 110.729 68.9998 111.691 68.9998H113.881C114.843 68.9998 115.627 69.9182 115.627 71.0446V73.6092C115.627 74.7355 114.843 75.6539 113.881 75.6539ZM111.691 70.0395C111.217 70.0395 110.833 70.4901 110.833 71.0446V73.6092C110.833 74.1637 111.217 74.6142 111.691 74.6142H113.881C114.354 74.6142 114.739 74.1637 114.739 73.6092V71.0446C114.739 70.4901 114.354 70.0395 113.881 70.0395H111.691Z" fill="white"/>
<path d="M123.839 75.6539H121.649C120.688 75.6539 119.903 74.7355 119.903 73.6092V71.0446C119.903 69.9182 120.688 68.9998 121.649 68.9998H123.839C124.801 68.9998 125.586 69.9182 125.586 71.0446V73.6092C125.586 74.7355 124.801 75.6539 123.839 75.6539ZM121.649 70.0395C121.176 70.0395 120.791 70.4901 120.791 71.0446V73.6092C120.791 74.1637 121.176 74.6142 121.649 74.6142H123.839C124.328 74.6142 124.698 74.181 124.698 73.6092V71.0446C124.698 70.4901 124.313 70.0395 123.839 70.0395H121.649Z" fill="white"/>
<path d="M196.85 232.701H142.632L153.271 193.695H186.195L196.85 232.701Z" fill="white"/>
<path d="M197.456 233.221H142.025L152.946 193.175H186.521L197.456 233.221ZM143.238 232.181H196.243L185.87 194.215H153.597L143.238 232.181Z" fill="#3FB1B5"/>
<path d="M146.893 217.088L153.271 193.695H186.195L146.893 217.088Z" fill="#3FB1B5"/>
<path d="M229.241 101.317H202.887C200.179 101.317 197.974 98.7353 197.974 95.5643V75.6366C197.974 72.4655 200.179 69.8836 202.887 69.8836H229.241C231.949 69.8836 234.154 72.4655 234.154 75.6366V95.5643C234.154 98.7353 231.949 101.317 229.241 101.317ZM202.887 70.9233C200.667 70.9233 198.862 73.0374 198.862 75.6366V95.5643C198.862 98.1635 200.667 100.278 202.887 100.278H229.241C231.461 100.278 233.266 98.1635 233.266 95.5643V75.6366C233.266 73.0374 231.461 70.9233 229.241 70.9233H202.887Z" fill="white"/>
<path d="M226.059 78.0281H205.95C205.698 78.0281 205.506 77.8028 205.506 77.5082C205.506 77.2136 205.698 76.9884 205.95 76.9884H226.059C226.311 76.9884 226.503 77.2136 226.503 77.5082C226.503 77.8028 226.311 78.0281 226.059 78.0281Z" fill="white"/>
<path d="M226.059 83.3998H205.95C205.698 83.3998 205.506 83.1746 205.506 82.88C205.506 82.5854 205.698 82.3602 205.95 82.3602H226.059C226.311 82.3602 226.503 82.5854 226.503 82.88C226.503 83.1746 226.311 83.3998 226.059 83.3998Z" fill="white"/>
<path d="M226.059 88.7717H205.95C205.698 88.7717 205.506 88.5464 205.506 88.2519C205.506 87.9573 205.698 87.732 205.95 87.732H226.059C226.311 87.732 226.503 87.9573 226.503 88.2519C226.503 88.5464 226.311 88.7717 226.059 88.7717Z" fill="white"/>
<path d="M226.059 94.1432H205.95C205.698 94.1432 205.506 93.9179 205.506 93.6233C205.506 93.3287 205.698 93.1035 205.95 93.1035H226.059C226.311 93.1035 226.503 93.3287 226.503 93.6233C226.503 93.9179 226.311 94.1432 226.059 94.1432Z" fill="white"/>
<path d="M236.521 183.055H131.771L125.63 193.365C118.69 205.01 104.026 205.183 96.8934 193.695L59.4857 133.444C61.0542 135.731 68.2309 133.184 75.0673 127.916C82.0073 122.562 86.4909 115.821 85.0851 113.326L111.025 152.037L118.971 135.61C121.146 131.26 124.757 128.141 128.959 126.998L155.994 120.292H179.3L204.988 126.928C209.457 128.124 213.245 131.538 215.391 136.268L236.521 183.055Z" fill="white"/>
<path d="M111.158 202.723C105.313 202.723 99.9858 199.552 96.538 193.989L59.1303 133.739L59.8406 133.115C61.0983 134.934 67.772 132.924 74.8303 127.483C78.1153 124.953 80.9712 122.025 82.8653 119.217C84.5818 116.688 85.2772 114.591 84.7149 113.603L85.44 112.997L110.965 151.102L118.586 135.35C120.821 130.879 124.564 127.656 128.856 126.495L155.95 119.772H179.344L179.389 119.789L205.077 126.426C209.664 127.656 213.57 131.157 215.775 136.026L237.246 183.575H131.993L125.985 193.66C122.596 199.344 117.254 202.654 111.321 202.723C111.276 202.723 111.217 202.723 111.158 202.723ZM60.8468 134.744L97.2631 193.383C100.578 198.72 105.698 201.752 111.335 201.683C116.973 201.614 122.049 198.477 125.275 193.071L131.549 182.535H235.796L215.006 136.511C212.919 131.902 209.235 128.592 204.899 127.431L179.255 120.812H156.038L129.048 127.5C124.993 128.609 121.457 131.659 119.356 135.87L111.084 152.973L85.7212 115.128C85.514 116.428 84.7889 118.056 83.546 119.876C81.5927 122.752 78.6628 125.768 75.3038 128.35C70.613 131.954 64.9752 134.796 61.6162 134.796C61.3499 134.796 61.0835 134.778 60.8468 134.744Z" fill="#3FB1B5"/>
<path d="M207.77 182.865C207.607 182.865 207.459 182.761 207.371 182.588L199.927 165.381C199.824 165.121 199.898 164.809 200.12 164.687C200.342 164.566 200.608 164.653 200.712 164.913L208.155 182.12C208.258 182.38 208.184 182.692 207.962 182.813C207.903 182.848 207.844 182.865 207.77 182.865Z" fill="#3FB1B5"/>
<path d="M131.179 184.476C131.105 184.476 131.046 184.459 130.972 184.424C130.75 184.303 130.661 183.974 130.779 183.731L138.148 166.697C138.252 166.437 138.533 166.333 138.74 166.472C138.962 166.593 139.051 166.923 138.933 167.165L131.563 184.199C131.49 184.372 131.342 184.476 131.179 184.476Z" fill="#3FB1B5"/>
<path d="M117.817 162.816C117.683 162.816 117.55 162.746 117.461 162.608L100.578 137.326C100.43 137.101 100.459 136.771 100.652 136.598C100.844 136.425 101.125 136.459 101.273 136.685L118.157 161.967C118.305 162.192 118.275 162.521 118.083 162.694C118.009 162.781 117.905 162.816 117.817 162.816Z" fill="#3FB1B5"/>
<path d="M176.71 138.21L170.214 128.939C170.051 128.714 170.081 128.384 170.273 128.211C170.466 128.021 170.747 128.055 170.895 128.28L176.829 136.719L190.398 123.238C190.59 123.047 190.871 123.082 191.019 123.29C191.182 123.515 191.153 123.844 190.975 124.018L176.71 138.21Z" fill="#3FB1B5"/>
<path d="M159.841 138.539L144.2 124.035C144.008 123.862 143.978 123.532 144.126 123.307C144.274 123.082 144.556 123.047 144.748 123.221L159.678 137.066L165.435 128.454C165.583 128.228 165.864 128.194 166.056 128.367C166.248 128.54 166.278 128.87 166.13 129.095L159.841 138.539Z" fill="#3FB1B5"/>
<path d="M66.603 142.801C65.1973 142.801 64.4574 142.299 64.0875 141.744C63.9395 141.519 63.9691 141.19 64.1615 141.017C64.3538 140.843 64.635 140.878 64.7829 141.103C65.4044 142.022 67.4317 141.97 70.1988 140.999C73.1434 139.96 76.6948 137.915 79.9207 135.402C83.2205 132.838 86.0912 129.874 88 127.033C89.7313 124.468 90.4268 122.354 89.8645 121.349C89.7313 121.106 89.7905 120.794 89.9977 120.621C90.2048 120.465 90.4712 120.534 90.6192 120.777C91.4182 122.215 90.7375 124.659 88.7103 127.674C86.7422 130.585 83.7976 133.635 80.4238 136.251C77.0795 138.851 73.543 140.895 70.4651 141.987C68.793 142.576 67.5353 142.801 66.603 142.801Z" fill="#3FB1B5"/>
<path d="M85.5881 125.976C84.4191 125.976 83.4721 124.867 83.4721 123.498C83.4721 122.129 84.4191 121.02 85.5881 121.02C86.7571 121.02 87.7041 122.129 87.7041 123.498C87.7041 124.867 86.7571 125.976 85.5881 125.976ZM85.5881 122.059C84.9074 122.059 84.3599 122.7 84.3599 123.498C84.3599 124.295 84.9074 124.936 85.5881 124.936C86.2688 124.936 86.8163 124.295 86.8163 123.498C86.8163 122.7 86.2688 122.059 85.5881 122.059Z" fill="#3FB1B5"/>
<path d="M168.157 138.279C166.988 138.279 166.041 137.17 166.041 135.801C166.041 134.432 166.988 133.323 168.157 133.323C169.326 133.323 170.273 134.432 170.273 135.801C170.273 137.17 169.326 138.279 168.157 138.279ZM168.157 134.362C167.477 134.362 166.929 135.004 166.929 135.801C166.929 136.598 167.477 137.239 168.157 137.239C168.838 137.239 169.386 136.598 169.386 135.801C169.386 135.004 168.838 134.362 168.157 134.362Z" fill="#3FB1B5"/>
<path d="M168.157 154.047C166.988 154.047 166.041 152.938 166.041 151.569C166.041 150.201 166.988 149.092 168.157 149.092C169.326 149.092 170.273 150.201 170.273 151.569C170.273 152.938 169.326 154.047 168.157 154.047ZM168.157 150.131C167.477 150.131 166.929 150.772 166.929 151.569C166.929 152.367 167.477 153.008 168.157 153.008C168.838 153.008 169.386 152.367 169.386 151.569C169.386 150.772 168.838 150.131 168.157 150.131Z" fill="#3FB1B5"/>
<path d="M125.097 194.197L131.771 183.055V194.197H125.097Z" fill="#3FB1B5"/>
<path d="M74.9041 127.396C68.0678 132.664 60.891 135.212 59.3225 132.924C59.2929 132.89 59.2781 132.855 59.2485 132.803C58.923 132.231 58.9526 131.451 59.2485 130.498C60.2695 127.362 64.4868 122.51 69.8434 118.386C74.1051 115.093 78.3075 112.806 81.2226 112.096C82.9095 111.697 84.1673 111.818 84.774 112.581L84.922 112.789C86.3129 115.284 81.8441 122.042 74.9041 127.396Z" fill="#FE5244"/>
<path d="M74.9042 127.396C71.0125 130.394 67.0024 132.526 63.9838 133.357L50.4738 111.038C48.5945 107.919 49.216 103.605 51.8943 101.404L64.0577 91.388L57.1622 77.6466C56.156 75.6539 56.733 73.0719 58.4495 71.9109C59.0118 71.5297 59.6185 71.3564 60.2252 71.3564C61.3942 71.3564 62.5484 72.0322 63.2291 73.2799L84.7889 112.546L84.9368 112.823C86.313 115.284 81.8442 122.042 74.9042 127.396Z" fill="#E57281"/>
<path d="M67.8755 111.298C67.6831 111.298 67.4907 111.281 67.2984 111.229C66.5585 111.056 65.9222 110.536 65.5227 109.808L58.4052 97.3315C58.272 97.0889 58.3312 96.777 58.5235 96.6037C58.7307 96.4477 58.9971 96.5171 59.145 96.7423L66.2626 109.219C66.5437 109.721 66.9728 110.068 67.4759 110.189C67.979 110.31 68.497 110.189 68.9261 109.86L70.5982 108.578C71.486 107.902 71.7376 106.516 71.1753 105.476L63.6434 91.8037C63.5103 91.5611 63.5694 91.2492 63.7766 91.0933C63.9838 90.9373 64.2501 91.0066 64.3833 91.2492L71.9151 104.921C72.7438 106.446 72.3591 108.474 71.0717 109.444L69.3996 110.726C68.9557 111.108 68.423 111.298 67.8755 111.298Z" fill="#9A3B82"/>
<path d="M62.3562 115.44C61.4387 115.44 60.5361 114.92 59.9886 113.967C59.8554 113.724 59.9146 113.412 60.1218 113.239C60.3289 113.083 60.5953 113.152 60.7433 113.395C61.3203 114.417 62.5041 114.712 63.392 114.053L64.9161 112.927C65.3452 112.598 65.656 112.095 65.7596 111.489C65.8631 110.882 65.7744 110.276 65.4932 109.773C65.36 109.531 65.4192 109.219 65.6264 109.045C65.8335 108.889 66.0999 108.959 66.2479 109.201C66.6622 109.947 66.8102 110.83 66.6474 111.714C66.4846 112.58 66.0407 113.326 65.4044 113.811L63.8803 114.937C63.4068 115.266 62.8741 115.44 62.3562 115.44Z" fill="#9A3B82"/>
<path d="M56.9404 119.321C56.0525 119.321 55.1795 118.836 54.632 117.918L50.5923 111.246C50.4443 111.004 50.5035 110.692 50.6959 110.518C50.8883 110.345 51.1694 110.415 51.3174 110.64L55.3571 117.311C55.9638 118.299 57.1032 118.559 57.9614 117.918L57.991 117.9L59.3967 116.982C59.8407 116.653 60.1366 116.15 60.255 115.561C60.3734 114.955 60.2698 114.348 59.9886 113.828L53.0191 101.698C52.8859 101.456 52.9303 101.144 53.1375 100.971C53.3446 100.815 53.611 100.867 53.7589 101.109L60.7285 113.239C61.1576 114.001 61.2908 114.903 61.128 115.769C60.9653 116.635 60.5214 117.381 59.8703 117.848L59.8555 117.866L58.4497 118.784C57.9614 119.165 57.4435 119.321 56.9404 119.321Z" fill="#9A3B82"/>
<path d="M79.7577 103.397L76.2211 96.9678C75.0521 94.8364 72.6106 94.2473 70.8201 95.6682L62.0452 102.634C62.0452 102.634 64.5904 107.989 70.7757 103.743L72.8473 107.607C68.6153 110.744 67.4019 117.346 70.1542 122.25L79.7577 103.397Z" fill="#E57281"/>
<path d="M70.1542 122.77C70.0063 122.77 69.8731 122.683 69.7843 122.527C68.3933 120.032 67.905 117.051 68.4525 114.14C68.9556 111.402 70.3022 109.045 72.2407 107.451L70.6277 104.436C68.4969 105.805 66.5585 106.204 64.842 105.666C62.6667 104.973 61.6901 102.963 61.6457 102.894L61.4534 102.478L70.095 95.4081C71.0717 94.6456 72.2259 94.3684 73.3653 94.6456C74.5047 94.9229 75.4813 95.7027 76.1176 96.8637L79.6541 103.292C79.7873 103.535 79.7281 103.847 79.521 104.003C79.3138 104.159 79.0474 104.09 78.9143 103.847L75.3777 97.4182C74.8746 96.4998 74.1051 95.876 73.1877 95.668C72.285 95.4427 71.3528 95.668 70.5981 96.2745L62.6519 102.773C63.0071 103.31 63.8061 104.28 65.0787 104.679C66.6472 105.181 68.4821 104.713 70.539 103.31L70.9089 103.05L73.4392 107.781L73.0693 108.058C71.1308 109.496 69.7843 111.749 69.296 114.383C68.8077 117.017 69.2368 119.72 70.5093 121.972C70.6425 122.215 70.5833 122.527 70.3762 122.7C70.317 122.735 70.243 122.77 70.1542 122.77Z" fill="#9A3B82"/>
<path d="M74.9043 127.397C71.0126 130.394 67.0025 132.526 63.9838 133.358L60.6248 127.813C62.5041 124.936 65.8631 121.47 69.8436 118.403C74.1052 115.111 78.3077 112.824 81.2228 112.113C82.9097 111.715 84.1674 111.836 84.7741 112.598L84.9221 112.806C84.9369 112.841 84.9517 112.858 84.9665 112.893C84.9813 112.91 84.9813 112.927 84.9961 112.962C85.0109 112.997 85.0257 113.014 85.0405 113.049C86.0467 115.7 81.6223 122.198 74.9043 127.397Z" fill="#9A3B82"/>
<path d="M179.285 105.043V120.275C179.285 124.693 174.047 128.263 167.61 128.263C161.158 128.263 155.935 124.693 155.935 120.275V105.043H179.285Z" fill="#E57281"/>
<path d="M159.353 125.924C157.237 124.485 155.92 122.475 155.92 120.275V105.043H179.285V109.271C179.285 113.655 177.006 117.589 173.543 119.235L159.353 125.924Z" fill="#9A3B82"/>
<path d="M185.796 104.142V104.402C185.796 107.036 183.975 109.167 181.726 109.167H179.048C178.145 113.43 174.86 116.601 170.924 116.601H164.295C160.374 116.601 157.074 113.447 156.186 109.167H153.508C151.258 109.167 149.438 107.036 149.438 104.402V104.142C149.438 101.508 151.258 99.3768 153.508 99.3768H155.934V95.6166C155.934 91.5964 158.465 88.2693 161.765 87.7148C162.49 89.1357 164.68 92.5321 169.149 92.3415C171.25 92.2549 173.203 91.787 174.816 91.2325C176.754 90.574 178.693 91.9603 179.181 94.1263C179.255 94.6115 179.299 95.0967 179.299 95.5992V99.3595H181.726C183.961 99.3595 185.796 101.508 185.796 104.142Z" fill="#E57281"/>
<path d="M181.149 99.3593H179.285V95.1832C179.285 94.8193 179.24 94.4554 179.166 94.1262C178.678 91.9601 176.739 90.5738 174.801 91.2323C173.188 91.7868 171.25 92.2547 169.134 92.3413C164.665 92.532 162.475 89.1356 161.75 87.7147C158.45 88.2692 155.92 91.5962 155.92 95.6164V99.3767H153.596C153.596 99.3767 150.933 88.0959 152.93 84.9075C154.899 81.771 157.266 83.14 157.266 83.14C157.266 83.14 155.846 73.748 163.777 73.9213C171.694 74.0946 181.993 84.8555 182.747 86.8309C183.931 89.8634 181.149 99.3593 181.149 99.3593Z" fill="#9A3B82"/>
<path d="M180.187 105.459C179.98 105.459 179.818 105.268 179.818 105.026C179.818 102.946 181.268 101.248 183.043 101.248C183.251 101.248 183.413 101.439 183.413 101.681C183.413 101.924 183.251 102.114 183.043 102.114C181.667 102.114 180.557 103.414 180.557 105.026C180.557 105.268 180.395 105.459 180.187 105.459Z" fill="#9A3B82"/>
<path d="M155.061 105.459C154.854 105.459 154.691 105.268 154.691 105.026C154.691 103.414 153.582 102.114 152.205 102.114C151.998 102.114 151.836 101.924 151.836 101.681C151.836 101.439 151.998 101.248 152.205 101.248C153.981 101.248 155.431 102.946 155.431 105.026C155.431 105.268 155.269 105.459 155.061 105.459Z" fill="#9A3B82"/>
<path d="M175.556 96.0495C175.482 96.0495 175.408 96.0149 175.334 95.9629C175.26 95.8936 173.351 94.3167 170.91 95.5124C170.717 95.599 170.51 95.495 170.421 95.2698C170.347 95.0445 170.436 94.8019 170.628 94.6979C173.469 93.329 175.674 95.1658 175.763 95.2524C175.926 95.3911 175.97 95.6683 175.837 95.8589C175.778 95.9802 175.674 96.0495 175.556 96.0495Z" fill="#9A3B82"/>
<path d="M159.515 96.05C159.397 96.05 159.294 95.9807 159.22 95.8767C159.101 95.6861 159.131 95.4088 159.294 95.2702C159.382 95.1836 161.602 93.3467 164.428 94.7157C164.621 94.8023 164.709 95.0623 164.635 95.2875C164.561 95.5128 164.339 95.6168 164.147 95.5301C161.691 94.3345 159.752 95.9634 159.723 95.9807C159.663 96.0153 159.589 96.05 159.515 96.05Z" fill="#9A3B82"/>
<path d="M168.542 110.64C167.965 110.64 167.299 110.501 166.544 110.172C166.352 110.086 166.248 109.843 166.322 109.618C166.396 109.392 166.604 109.271 166.796 109.358C169.903 110.709 170.924 108.318 170.969 108.214C171.058 108.006 171.279 107.902 171.457 108.006C171.635 108.11 171.723 108.37 171.635 108.578C171.62 108.613 170.776 110.64 168.542 110.64Z" fill="#9A3B82"/>
<path d="M167.491 107.382C167.151 107.382 166.781 107.382 166.47 107.348C166.263 107.33 166.115 107.122 166.13 106.88C166.145 106.637 166.322 106.464 166.529 106.481C167.402 106.551 168.749 106.481 168.764 106.481C168.971 106.464 169.134 106.655 169.149 106.897C169.163 107.14 169.001 107.33 168.793 107.348C168.764 107.348 168.157 107.382 167.491 107.382Z" fill="#9A3B82"/>
<path d="M173.174 102.842C173.582 102.842 173.913 102.191 173.913 101.387C173.913 100.583 173.582 99.9311 173.174 99.9311C172.765 99.9311 172.434 100.583 172.434 101.387C172.434 102.191 172.765 102.842 173.174 102.842Z" fill="#9A3B82"/>
<path d="M162.564 102.842C162.972 102.842 163.304 102.191 163.304 101.387C163.304 100.583 162.972 99.9311 162.564 99.9311C162.155 99.9311 161.824 100.583 161.824 101.387C161.824 102.191 162.155 102.842 162.564 102.842Z" fill="#9A3B82"/>
<path d="M164.325 106.724H159.663C158.568 106.724 157.666 105.667 157.666 104.385V98.9261C157.666 97.6438 158.568 96.5868 159.663 96.5868H164.325C165.42 96.5868 166.322 97.6438 166.322 98.9261V104.385C166.337 104.991 166.13 105.58 165.76 106.013C165.375 106.481 164.872 106.724 164.325 106.724ZM159.663 97.4532C158.968 97.4532 158.406 98.1117 158.406 98.9261V104.385C158.406 105.199 158.968 105.857 159.663 105.857H164.325C164.665 105.857 164.99 105.702 165.227 105.407C165.464 105.13 165.582 104.766 165.582 104.385V98.9261C165.582 98.1117 165.02 97.4532 164.325 97.4532H159.663Z" fill="white"/>
<path d="M175.733 106.724H171.072C169.977 106.724 169.074 105.667 169.074 104.385V98.9261C169.074 97.6438 169.977 96.5868 171.072 96.5868H175.733C176.828 96.5868 177.731 97.6438 177.731 98.9261V104.385C177.731 105.667 176.828 106.724 175.733 106.724ZM171.072 97.4532C170.376 97.4532 169.814 98.1117 169.814 98.9261V104.385C169.814 105.199 170.376 105.857 171.072 105.857H175.733C176.429 105.857 176.991 105.199 176.991 104.385V98.9261C176.991 98.1117 176.429 97.4532 175.733 97.4532H171.072Z" fill="white"/>
<path d="M169.444 100.191H165.967V101.057H169.444V100.191Z" fill="white"/>
<path d="M176.962 176.852H160.788C159.072 176.852 157.681 175.223 157.681 173.213V163.145C157.681 161.135 159.072 159.506 160.788 159.506H176.962C178.678 159.506 180.069 161.135 180.069 163.145V173.213C180.069 175.223 178.678 176.852 176.962 176.852ZM160.788 160.546C159.56 160.546 158.569 161.707 158.569 163.145V173.213C158.569 174.651 159.56 175.812 160.788 175.812H176.962C178.19 175.812 179.182 174.651 179.182 173.213V163.145C179.182 161.707 178.19 160.546 176.962 160.546H160.788Z" fill="#66B0F0"/>
<path d="M169.282 172.277H163.807C162.934 172.277 162.224 171.445 162.224 170.423V165.935C162.224 164.913 162.934 164.081 163.807 164.081H169.282C170.155 164.081 170.865 164.913 170.865 165.935V170.423C170.865 171.445 170.155 172.277 169.282 172.277Z" fill="#66B0F0"/>
<path d="M174.609 172.156L172.922 170.839C172.463 170.475 172.182 169.851 172.182 169.175V167.2C172.182 166.524 172.463 165.9 172.922 165.536L174.609 164.219C175.009 163.907 175.527 164.254 175.527 164.843V171.549C175.541 172.121 175.009 172.468 174.609 172.156Z" fill="#66B0F0"/>
<path d="M393.27 233.567H0.443921C0.192366 233.567 0 233.342 0 233.048C0 232.753 0.192366 232.528 0.443921 232.528H393.27C393.521 232.528 393.714 232.753 393.714 233.048C393.714 233.342 393.521 233.567 393.27 233.567Z" fill="#3FB1B5"/>
<path d="M126.917 236.08V450.016H116.603V409.294C116.603 405.499 113.97 402.415 110.729 402.415H36.9047C33.6641 402.415 31.0302 405.499 31.0302 409.294V450.016H20.7164V236.08H126.917Z" fill="white"/>
<path d="M127.361 450.536H116.16V409.294C116.16 405.794 113.718 402.935 110.729 402.935H36.9048C33.9157 402.935 31.4742 405.794 31.4742 409.294V450.536H20.2726V235.56H127.361V450.536ZM117.047 449.496H126.473V236.6H21.1604V449.496H30.5863V409.294C30.5863 405.222 33.4274 401.895 36.9048 401.895H110.729C114.206 401.895 117.047 405.222 117.047 409.294V449.496Z" fill="#3FB1B5"/>
<path d="M127.228 236.08V292.848L20.7164 395.553L20.7312 236.08H127.228Z" fill="#D0F0E4"/>
<path d="M111.04 298.202H36.6088C33.2942 298.202 30.6011 295.048 30.6011 291.167V252.369C30.6011 248.487 33.2942 245.333 36.6088 245.333H111.04C114.354 245.333 117.047 248.487 117.047 252.369V291.167C117.047 295.048 114.354 298.202 111.04 298.202ZM36.6088 246.373C33.7825 246.373 31.4889 249.059 31.4889 252.369V291.167C31.4889 294.477 33.7825 297.162 36.6088 297.162H111.04C113.866 297.162 116.16 294.477 116.16 291.167V252.369C116.16 249.059 113.866 246.373 111.04 246.373H36.6088Z" fill="#3FB1B5"/>
<path d="M92.7498 327.071H56.1115L54.5874 314.785H91.2405L92.7498 327.071Z" fill="#FFCF2D"/>
<path d="M112.297 307.698C107.725 307.698 104.026 312.03 104.026 317.385V327.071H72.8476V317.385C72.8476 312.03 76.5469 307.698 81.1193 307.698H112.297Z" fill="white"/>
<path d="M104.47 327.591H72.4037V317.385C72.4037 311.753 76.3102 307.178 81.1193 307.178H112.297V308.218C107.977 308.218 104.47 312.325 104.47 317.385V327.591ZM73.2915 326.552H103.582V317.385C103.582 313.365 105.579 309.882 108.465 308.218H81.1193C76.7985 308.218 73.2915 312.325 73.2915 317.385V326.552Z" fill="#3FB1B5"/>
<path d="M120.066 314.786H88.8881C87.9263 310.696 84.7153 307.698 80.9124 307.698H112.09C115.893 307.698 119.09 310.696 120.066 314.786Z" fill="white"/>
<path d="M120.659 315.305H88.563L88.4742 314.924C87.542 310.973 84.4345 308.218 80.9275 308.218V307.178H112.106C115.997 307.178 119.46 310.246 120.511 314.647L120.659 315.305ZM89.2141 314.266H119.46C118.35 310.679 115.391 308.218 112.091 308.218H84.7453C86.8317 309.414 88.489 311.58 89.2141 314.266Z" fill="#3FB1B5"/>
<path d="M111.04 379.42H36.6088C33.2942 379.42 30.6011 376.266 30.6011 372.385V333.587C30.6011 329.705 33.2942 326.551 36.6088 326.551H111.04C114.354 326.551 117.047 329.705 117.047 333.587V372.385C117.047 376.266 114.354 379.42 111.04 379.42ZM36.6088 327.591C33.7825 327.591 31.4889 330.277 31.4889 333.587V372.385C31.4889 375.694 33.7825 378.38 36.6088 378.38H111.04C113.866 378.38 116.16 375.694 116.16 372.385V333.587C116.16 330.277 113.866 327.591 111.04 327.591H36.6088Z" fill="#3FB1B5"/>
<path d="M89.0801 271.516C88.8286 271.516 88.6362 271.291 88.6362 270.997C88.6362 268.189 86.6978 265.919 84.3006 265.919H63.3623C60.9651 265.919 59.0266 268.189 59.0266 270.997C59.0266 271.291 58.8343 271.516 58.5827 271.516C58.3312 271.516 58.1388 271.291 58.1388 270.997C58.1388 267.617 60.4768 264.88 63.3623 264.88H84.3006C87.1861 264.88 89.5241 267.617 89.5241 270.997C89.5241 271.291 89.3317 271.516 89.0801 271.516Z" fill="#3FB1B5"/>
<path d="M89.0801 352.734C88.8286 352.734 88.6362 352.509 88.6362 352.214C88.6362 349.407 86.6978 347.137 84.3006 347.137H63.3623C60.9651 347.137 59.0266 349.407 59.0266 352.214C59.0266 352.509 58.8343 352.734 58.5827 352.734C58.3312 352.734 58.1388 352.509 58.1388 352.214C58.1388 348.835 60.4768 346.098 63.3623 346.098H84.3006C87.1861 346.098 89.5241 348.835 89.5241 352.214C89.5241 352.509 89.3317 352.734 89.0801 352.734Z" fill="#3FB1B5"/>
<path d="M377.629 236.08H366.634V450.484H377.629V236.08Z" fill="white"/>
<path d="M378.073 451.004H366.191V235.56H378.073V451.004ZM367.078 449.964H377.185V236.6H367.078V449.964Z" fill="#3FB1B5"/>
<path d="M420.231 451.004H190.783C190.531 451.004 190.339 450.779 190.339 450.484C190.339 450.19 190.531 449.964 190.783 449.964H420.231C420.482 449.964 420.675 450.19 420.675 450.484C420.675 450.779 420.482 451.004 420.231 451.004Z" fill="#3FB1B5"/>
<path d="M51.9389 203.641H45.2949C45.2949 203.641 35.8098 157.357 27.4788 155.849C19.1479 154.342 18.7188 172.155 18.7188 172.155C18.7188 172.155 18.8668 145.071 39.6867 148.779C60.5214 152.488 51.9389 203.641 51.9389 203.641Z" fill="white"/>
<path d="M52.3092 204.161H44.9549L44.8661 203.762C44.8365 203.641 42.4541 192.066 39.0951 180.473C33.5313 161.291 29.6692 156.768 27.42 156.369C25.8811 156.092 24.5197 156.508 23.3951 157.617C19.4738 161.429 19.1779 172.069 19.1779 172.173L18.29 172.156C18.29 172.017 18.3196 168.846 19.1926 164.791C20.0065 161.031 21.723 155.78 25.3188 152.176C28.9737 148.52 33.8273 147.203 39.7758 148.277C43.6231 148.953 46.7454 151.275 49.0686 155.139C52.7975 161.36 54.4992 171.428 54.0997 185.1C53.8037 195.237 52.4128 203.658 52.398 203.745L52.3092 204.161ZM45.6504 203.121H51.5841C51.8653 201.302 52.9603 193.816 53.2118 185.048C53.4782 175.812 52.8419 163.249 48.3435 155.746C46.1683 152.107 43.2384 149.941 39.6426 149.317C33.9752 148.312 29.3436 149.542 25.8958 152.99C24.86 154.03 23.9722 155.226 23.2323 156.491C24.4901 155.451 25.9402 155.087 27.568 155.382C31.1933 156.04 35.3662 164.392 39.9534 180.196C42.9572 190.576 45.1916 200.973 45.6504 203.121Z" fill="#3FB1B5"/>
<path d="M49.0238 203.468C48.787 203.468 48.5798 203.243 48.5798 202.948C48.0915 168.447 41.847 156.265 36.6975 152.141C32.791 149.005 29.3728 150.426 29.3432 150.443C29.1065 150.547 28.8549 150.408 28.7661 150.131C28.6774 149.854 28.7957 149.559 29.0325 149.455C29.1953 149.386 32.9094 147.844 37.2007 151.275C40.5153 153.943 43.2232 158.83 45.2356 165.831C47.8252 174.841 49.2457 187.318 49.4677 202.931C49.4677 203.225 49.2753 203.468 49.0238 203.468Z" fill="#3FB1B5"/>
<path d="M70.0361 202.948H38.8284V232.701H70.0361V202.948Z" fill="#FE5244"/>
<path d="M76.6063 217.833C74.6234 218.838 72.2559 218.717 70.0511 217.59C68.4233 216.759 66.8844 215.39 65.6414 213.518C63.9249 210.919 62.7707 207.367 62.7707 202.948C62.7707 192.239 55.4904 185.515 52.5014 199.69C52.2942 200.678 52.1018 201.752 51.9391 202.948V202.913V202.844C51.9391 202.809 51.9391 202.757 51.9539 202.705V202.636C52.0131 201.752 52.235 199.136 52.9157 195.982C53.4188 193.643 54.1735 191.043 55.2981 188.635C55.8604 187.439 56.5115 186.295 57.2809 185.273C59.2638 182.604 61.9865 180.733 65.7006 180.733C72.537 180.733 77.5385 190.16 79.4474 199.551C81.1195 207.713 80.4388 215.875 76.6063 217.833Z" fill="white"/>
<path d="M73.6912 219.029C72.4334 219.029 71.1164 218.699 69.8734 218.058C68.1126 217.157 66.5292 215.702 65.2863 213.83C63.3478 210.902 62.3268 207.124 62.3268 202.948C62.3268 198.061 60.4919 192.551 57.7544 192.17C55.7715 191.892 54.0255 194.682 52.9305 199.811C52.7085 200.886 52.5309 201.926 52.3681 203.035L51.4803 202.948V202.844C51.4803 202.809 51.4803 202.723 51.4951 202.636V202.584C51.5543 201.614 51.7911 199.014 52.4717 195.843C53.0784 193.036 53.8923 190.523 54.8985 188.375C55.5348 187.04 56.2007 185.897 56.9405 184.926C59.2637 181.79 62.2084 180.213 65.7006 180.213C72.8033 180.213 77.938 189.865 79.8765 199.43C80.7347 203.641 80.9715 207.783 80.5276 211.092C80.0392 214.818 78.7371 217.296 76.7838 218.301C75.8368 218.786 74.7862 219.029 73.6912 219.029ZM57.488 191.113C57.6212 191.113 57.7396 191.13 57.858 191.147C60.8174 191.563 63.2146 196.866 63.2146 202.965C63.2146 206.916 64.1764 210.468 65.9965 213.224C67.1507 214.957 68.6157 216.308 70.2286 217.14C72.3446 218.214 74.6086 218.301 76.4287 217.382C79.7433 215.684 80.7939 208.424 79.0182 199.708C78.0268 194.804 76.2659 190.281 74.0759 186.971C71.6047 183.246 68.7192 181.287 65.7006 181.287C62.4895 181.287 59.7668 182.76 57.6212 185.654C56.9257 186.59 56.2894 187.647 55.6976 188.929C54.9577 190.523 54.3214 192.308 53.8035 194.284C54.0551 193.799 54.3066 193.365 54.573 192.984C55.6236 191.477 56.689 191.113 57.488 191.113Z" fill="#3FB1B5"/>
<path d="M75.0227 218.682C74.8008 218.682 74.6084 218.492 74.5788 218.214C72.4184 194.457 67.4909 187.11 63.7471 185.134C60.4029 183.367 57.5766 185.672 57.547 185.689C57.3547 185.862 57.0735 185.793 56.9255 185.568C56.7776 185.342 56.8368 185.013 57.0291 184.84C57.1623 184.736 60.2993 182.171 64.1023 184.181C66.6178 185.516 68.8078 188.531 70.5983 193.175C72.8475 198.98 74.4752 207.367 75.4518 218.093C75.4814 218.37 75.3039 218.63 75.0523 218.665C75.0523 218.682 75.0375 218.682 75.0227 218.682Z" fill="#3FB1B5"/>
<path d="M18.2747 172.156C18.2747 175.015 17.9936 185.949 26.9016 186.451C35.8096 186.954 36.6975 171.202 36.6975 171.202C36.6975 171.202 32.3174 157.27 27.4787 155.849C19.2957 153.441 18.2747 172.156 18.2747 172.156Z" fill="#3FB1B5"/>
<path d="M62.7705 202.948H51.9388C54.4396 184.597 62.7705 191.494 62.7705 202.948Z" fill="#3FB1B5"/>
<path opacity="0.4" d="M246.717 68.1679V182.553C246.717 188.704 242.455 193.677 237.217 193.677H125.423C118.409 204.993 103.952 205.045 96.8786 193.677L96.8638 193.66C94.0523 193.435 91.5663 191.754 89.9682 189.276L92.5429 186.677L158.243 120.274L220.807 57.0431H237.217C242.455 57.0431 246.717 62.0337 246.717 68.1679Z" fill="white"/>
<path opacity="0.4" d="M76.6061 218.353C74.6381 219.393 72.2557 219.237 70.0509 218.11V232.701H47.0114L65.6561 213.865L70.0657 209.412L73.4247 206.015L79.9207 199.552C81.8148 209.013 80.7642 216.118 76.6061 218.353Z" fill="white"/>
<path d="M272.804 295.343V391.792H253.775L241.656 352.162L224.298 295.343H272.804Z" fill="#A0505A"/>
<path d="M224.298 295.343H272.804V326.308L230.069 314.213L224.298 295.343Z" fill="#73325A"/>
<path d="M273.248 392.312H253.464L240.842 351.036L241.878 351.694C241.907 351.712 244.364 353.254 249.365 354.016C253.982 354.727 261.795 354.883 272.701 351.642L273.248 351.486V392.312ZM254.086 391.272H272.36V352.821C261.558 355.957 253.805 355.767 249.173 355.056C245.814 354.536 243.594 353.687 242.425 353.133L254.086 391.272Z" fill="white"/>
<path d="M251.555 361.987C250.12 361.987 248.951 360.618 248.951 358.938C248.951 357.257 250.12 355.888 251.555 355.888C252.991 355.888 254.16 357.257 254.16 358.938C254.16 360.618 252.991 361.987 251.555 361.987ZM251.555 356.928C250.608 356.928 249.839 357.829 249.839 358.938C249.839 360.047 250.608 360.948 251.555 360.948C252.502 360.948 253.272 360.047 253.272 358.938C253.272 357.829 252.502 356.928 251.555 356.928Z" fill="white"/>
<path d="M261.855 370.149C260.419 370.149 259.25 368.78 259.25 367.099C259.25 365.419 260.419 364.05 261.855 364.05C263.29 364.05 264.459 365.419 264.459 367.099C264.459 368.78 263.29 370.149 261.855 370.149ZM261.855 365.089C260.907 365.089 260.138 365.99 260.138 367.099C260.138 368.208 260.907 369.109 261.855 369.109C262.802 369.109 263.571 368.208 263.571 367.099C263.571 365.99 262.802 365.089 261.855 365.089Z" fill="white"/>
<path d="M269.519 361.086C268.084 361.086 266.915 359.717 266.915 358.037C266.915 356.356 268.084 354.987 269.519 354.987C270.955 354.987 272.124 356.356 272.124 358.037C272.124 359.717 270.955 361.086 269.519 361.086ZM269.519 356.026C268.572 356.026 267.803 356.928 267.803 358.037C267.803 359.146 268.572 360.047 269.519 360.047C270.466 360.047 271.236 359.146 271.236 358.037C271.236 356.928 270.466 356.026 269.519 356.026Z" fill="white"/>
<path d="M266.486 379.645C265.051 379.645 263.882 378.276 263.882 376.595C263.882 374.914 265.051 373.545 266.486 373.545C267.921 373.545 269.09 374.914 269.09 376.595C269.09 378.276 267.921 379.645 266.486 379.645ZM266.486 374.585C265.539 374.585 264.769 375.486 264.769 376.595C264.769 377.704 265.539 378.605 266.486 378.605C267.433 378.605 268.202 377.704 268.202 376.595C268.202 375.486 267.433 374.585 266.486 374.585Z" fill="white"/>
<path d="M253.716 375.036C252.281 375.036 251.112 373.667 251.112 371.986C251.112 370.305 252.281 368.936 253.716 368.936C255.151 368.936 256.32 370.305 256.32 371.986C256.32 373.667 255.151 375.036 253.716 375.036ZM253.716 369.976C252.769 369.976 251.999 370.877 251.999 371.986C251.999 373.095 252.769 373.996 253.716 373.996C254.663 373.996 255.433 373.095 255.433 371.986C255.433 370.877 254.663 369.976 253.716 369.976Z" fill="white"/>
<path d="M257.238 388.898C255.802 388.898 254.633 387.53 254.633 385.849C254.633 384.168 255.802 382.799 257.238 382.799C258.673 382.799 259.842 384.168 259.842 385.849C259.842 387.53 258.673 388.898 257.238 388.898ZM257.238 383.839C256.291 383.839 255.521 384.74 255.521 385.849C255.521 386.958 256.291 387.859 257.238 387.859C258.185 387.859 258.954 386.958 258.954 385.849C258.954 384.74 258.185 383.839 257.238 383.839Z" fill="white"/>
<path d="M281.801 409.779L268.75 441.508C266.9 446.62 262.624 449.947 257.874 449.947H241.227C236.965 449.947 234.375 444.887 236.003 440.277L252.739 393.006C253.671 390.129 255.314 387.738 257.371 386.057C259.442 384.376 261.928 383.423 264.547 383.423C268.188 383.423 271.798 386.317 274.195 389.523L279.996 396.852C282.674 400.422 283.37 405.43 281.801 409.779Z" fill="#66B0F0"/>
<path d="M281.801 409.779L268.75 441.508C266.9 446.619 262.624 449.946 257.874 449.946H240.176C238.534 449.946 237.601 448.751 237.054 447.105H240.99C245.74 447.105 250.016 443.778 251.866 438.666L266.915 401.912C268.321 398.481 271.295 396.28 274.55 396.28C278.797 396.28 282.023 399.919 282.615 404.529C282.674 406.296 282.408 408.081 281.801 409.779Z" fill="white"/>
<path d="M257.874 450.466H240.176C238.533 450.466 237.335 449.392 236.639 447.295C236.58 447.139 236.61 446.949 236.684 446.81C236.773 446.671 236.906 446.585 237.054 446.585H240.99C245.562 446.585 249.676 443.396 251.452 438.458C251.452 438.458 251.452 438.44 251.466 438.44L266.515 401.687C267.995 398.083 271.147 395.761 274.55 395.761C278.827 395.761 282.408 399.417 283.059 404.46C283.059 404.477 283.059 404.494 283.059 404.512C283.118 406.383 282.837 408.237 282.215 409.987C282.215 409.987 282.215 410.005 282.201 410.005L269.149 441.716C267.226 447.035 262.801 450.466 257.874 450.466ZM237.749 447.625C238.312 448.855 239.096 449.427 240.176 449.427H257.874C262.446 449.427 266.56 446.238 268.335 441.3C268.335 441.3 268.335 441.282 268.35 441.282L281.402 409.571C281.964 407.977 282.23 406.296 282.171 404.581C281.579 400.075 278.383 396.8 274.55 396.8C271.487 396.8 268.646 398.897 267.314 402.138L252.265 438.874C250.342 444.193 245.917 447.625 240.99 447.625H237.749Z" fill="#66B0F0"/>
<path d="M278.797 395.328C277.229 394.322 275.335 393.595 273.677 393.595C270.496 393.595 267.551 395.761 266.175 399.122L250.593 437.176C248.611 442.669 244.023 446.221 238.918 446.221H236.048C235.9 445.892 235.796 445.545 235.693 445.181H238.918C243.668 445.181 247.93 441.872 249.78 436.76L249.794 436.742L265.391 398.672C266.915 394.946 270.17 392.555 273.692 392.555C274.817 392.555 276.163 392.988 277.318 393.456L278.797 395.328Z" fill="white"/>
<path d="M224.298 295.343L220.584 352.163L218.927 377.618C218.927 377.618 208.11 391.723 195.799 383.024L190.102 352.18L177.065 281.601C173.543 262.523 184.671 243.964 201.2 241.382L224.298 295.343Z" fill="#A0505A"/>
<path d="M204.13 387.062C201.481 387.062 198.566 386.282 195.577 384.168L195.414 384.047L189.525 351.435L190.235 351.695C204.248 356.616 220.318 351.73 220.481 351.678L221.087 351.487L219.371 378.536L219.267 378.675C219.149 378.814 216.456 382.297 212.179 384.757C210.034 385.97 207.252 387.062 204.13 387.062ZM196.198 383.388C201.111 386.785 206.349 386.923 211.765 383.822C215.435 381.708 217.98 378.727 218.498 378.086L220.096 352.839C218.749 353.202 215.257 354.086 210.744 354.571C205.55 355.143 197.929 355.282 190.679 352.925L196.198 383.388Z" fill="white"/>
<path d="M203.582 368.399C202.146 368.399 200.977 367.03 200.977 365.349C200.977 363.669 202.146 362.3 203.582 362.3C205.017 362.3 206.186 363.669 206.186 365.349C206.186 367.03 205.017 368.399 203.582 368.399ZM203.582 363.339C202.635 363.339 201.865 364.24 201.865 365.349C201.865 366.458 202.635 367.36 203.582 367.36C204.529 367.36 205.298 366.458 205.298 365.349C205.298 364.24 204.529 363.339 203.582 363.339Z" fill="white"/>
<path d="M217.314 364.518C215.879 364.518 214.71 363.149 214.71 361.468C214.71 359.787 215.879 358.418 217.314 358.418C218.749 358.418 219.918 359.787 219.918 361.468C219.918 363.149 218.749 364.518 217.314 364.518ZM217.314 359.458C216.367 359.458 215.597 360.359 215.597 361.468C215.597 362.577 216.367 363.478 217.314 363.478C218.261 363.478 219.03 362.577 219.03 361.468C219.03 360.359 218.261 359.458 217.314 359.458Z" fill="white"/>
<path d="M195.295 361.087C193.86 361.087 192.691 359.718 192.691 358.037C192.691 356.356 193.86 354.987 195.295 354.987C196.731 354.987 197.9 356.356 197.9 358.037C197.9 359.718 196.731 361.087 195.295 361.087ZM195.295 356.027C194.348 356.027 193.579 356.928 193.579 358.037C193.579 359.146 194.348 360.047 195.295 360.047C196.243 360.047 197.012 359.146 197.012 358.037C197.012 356.928 196.243 356.027 195.295 356.027Z" fill="white"/>
<path d="M201.422 382.175C199.986 382.175 198.817 380.806 198.817 379.125C198.817 377.445 199.986 376.076 201.422 376.076C202.857 376.076 204.026 377.445 204.026 379.125C204.026 380.806 202.857 382.175 201.422 382.175ZM201.422 377.115C200.475 377.115 199.705 378.016 199.705 379.125C199.705 380.234 200.475 381.136 201.422 381.136C202.369 381.136 203.138 380.234 203.138 379.125C203.138 378.016 202.369 377.115 201.422 377.115Z" fill="white"/>
<path d="M211.498 377.115C210.063 377.115 208.894 375.747 208.894 374.066C208.894 372.385 210.063 371.016 211.498 371.016C212.934 371.016 214.103 372.385 214.103 374.066C214.103 375.747 212.934 377.115 211.498 377.115ZM211.498 372.056C210.551 372.056 209.782 372.957 209.782 374.066C209.782 375.175 210.551 376.076 211.498 376.076C212.445 376.076 213.215 375.175 213.215 374.066C213.215 372.957 212.445 372.056 211.498 372.056Z" fill="white"/>
<path d="M233.192 383.683L218.927 450.484H214.428C214.221 450.484 214.029 450.467 213.822 450.449C210.418 450.085 207.548 446.724 206.823 442.755L195.784 382.99C208.095 391.706 218.927 377.601 218.927 377.601L233.192 383.683Z" fill="#66B0F0"/>
<path d="M233.917 417.959C236.92 399.383 237.749 385.191 232.57 384.047C227.391 382.904 218.172 395.224 215.168 413.8C212.164 432.376 213.733 448.803 218.912 449.947C224.091 451.108 230.913 436.552 233.917 417.959Z" fill="white"/>
<path d="M219.504 450.536C219.282 450.536 219.045 450.519 218.823 450.467C216.13 449.878 214.251 445.615 213.526 438.476C212.83 431.596 213.26 422.793 214.724 413.713C216.115 405.136 218.942 397.147 222.685 391.221C226.118 385.797 229.847 382.921 232.644 383.545C235.337 384.134 236.669 387.703 236.743 394.461C236.802 399.972 236.018 407.683 234.346 418.063C233.162 425.375 231.371 432.255 229.167 437.956C226.991 443.587 224.609 447.538 222.286 449.392C221.339 450.138 220.407 450.536 219.504 450.536ZM231.875 384.498C229.507 384.498 226.326 387.236 223.411 391.845C219.741 397.65 216.974 405.482 215.597 413.904C214.147 422.897 213.718 431.579 214.399 438.354C215.065 444.904 216.737 448.942 218.986 449.444C219.844 449.635 220.791 449.323 221.798 448.526C226.34 444.904 231.15 432.307 233.473 417.872C235.145 407.579 235.914 399.92 235.855 394.479C235.796 388.379 234.656 385.052 232.481 384.567C232.289 384.515 232.082 384.498 231.875 384.498Z" fill="#66B0F0"/>
<path d="M213.097 413.505C211.543 423.14 211.084 432.445 211.824 439.723C212.357 444.956 213.481 448.682 215.02 450.484H214.428C214.221 450.484 214.029 450.466 213.822 450.449C212.431 448.3 211.439 444.696 210.936 439.844C210.182 432.48 210.64 423.053 212.224 413.314C213.718 404.096 216.737 395.449 220.747 388.951C223.144 385.069 225.66 382.349 227.953 381.118L229.285 381.638C224.002 383.475 215.982 395.674 213.097 413.505Z" fill="white"/>
<path d="M201.2 241.365L268.706 233.221L336.182 255.384L335.605 265.885C334.687 282.451 322.494 295.343 308.318 295.343H224.314L201.2 241.365Z" fill="#FE5244"/>
<path d="M305.344 288.586H221.339C221.088 288.586 220.895 288.36 220.895 288.066C220.895 287.771 221.088 287.546 221.339 287.546H305.344C311.766 287.546 318.499 283.578 323.826 276.629C328.872 270.044 331.89 261.813 331.89 254.622C331.89 254.328 332.083 254.102 332.334 254.102C332.586 254.102 332.778 254.328 332.778 254.622C332.778 262.073 329.671 270.564 324.492 277.34C318.987 284.479 312.017 288.586 305.344 288.586Z" fill="white"/>
<path d="M298.729 279.921H217.936C217.684 279.921 217.492 279.696 217.492 279.401C217.492 279.107 217.684 278.881 217.936 278.881H298.729C304.338 278.881 310.138 275.797 315.036 270.183C319.638 264.915 322.864 258.122 323.885 251.537C323.929 251.26 324.166 251.069 324.403 251.121C324.64 251.173 324.802 251.451 324.758 251.728C322.672 265.053 311.47 279.921 298.729 279.921Z" fill="white"/>
<path d="M291.612 271.084H213.644C213.393 271.084 213.2 270.858 213.2 270.564C213.2 270.269 213.393 270.044 213.644 270.044H291.612C302.266 270.044 311.514 258.815 314.814 248.262C314.903 247.985 315.154 247.846 315.376 247.95C315.613 248.054 315.731 248.349 315.643 248.609C313.808 254.483 310.493 260.011 306.291 264.17C301.718 268.692 296.643 271.084 291.612 271.084Z" fill="white"/>
<path d="M287.764 261.553H209.797C209.546 261.553 209.353 261.328 209.353 261.033C209.353 260.739 209.546 260.513 209.797 260.513H287.764C295.104 260.513 302.799 254.916 307.859 245.923C307.992 245.68 308.274 245.611 308.481 245.767C308.688 245.923 308.747 246.252 308.614 246.495C303.376 255.783 295.4 261.553 287.764 261.553Z" fill="white"/>
<path d="M284.065 252.889H206.098C205.846 252.889 205.654 252.664 205.654 252.369C205.654 252.074 205.846 251.849 206.098 251.849H284.065C289.718 251.849 295.415 248.799 300.106 243.272C300.283 243.064 300.564 243.064 300.727 243.272C300.905 243.48 300.905 243.809 300.727 243.999C295.873 249.735 289.955 252.889 284.065 252.889Z" fill="white"/>
<path d="M280.07 244.051H202.103C201.851 244.051 201.659 243.826 201.659 243.532C201.659 243.237 201.851 243.012 202.103 243.012H280.07C283.399 243.012 286.744 241.903 290.029 239.737C290.236 239.598 290.517 239.685 290.635 239.927C290.754 240.17 290.68 240.499 290.472 240.638C287.054 242.908 283.547 244.051 280.07 244.051Z" fill="white"/>
<path d="M224.151 295.863C223.988 295.863 223.825 295.759 223.751 295.569L200.653 241.591C200.549 241.331 200.638 241.019 200.845 240.898C201.067 240.776 201.333 240.88 201.437 241.123L224.536 295.101C224.639 295.361 224.55 295.673 224.343 295.794C224.284 295.846 224.225 295.863 224.151 295.863Z" fill="white"/>
<path d="M339.881 183.055C333.518 185.169 327.259 184.546 326.593 182.276C325.971 180.11 328.783 176.401 334.48 173.941C334.761 173.819 335.057 173.698 335.353 173.577C337.069 172.901 338.786 172.468 340.399 172.242C345.178 171.532 349.07 172.537 349.558 174.235C350.224 176.505 346.614 180.82 339.881 183.055Z" fill="white"/>
<path d="M332.305 184.875C329.079 184.875 326.637 184.025 326.164 182.449C325.365 179.676 328.872 175.812 334.317 173.455C334.598 173.334 334.894 173.213 335.19 173.091H335.205C336.877 172.433 338.608 171.982 340.34 171.74C345.237 171.012 349.381 172.017 349.973 174.079C350.18 174.755 350.076 175.587 349.691 176.453C348.448 179.225 344.646 182.033 339.999 183.575C337.321 184.441 334.613 184.875 332.305 184.875ZM343.432 172.537C342.53 172.537 341.538 172.606 340.458 172.762C338.786 173.005 337.114 173.438 335.501 174.079C335.205 174.2 334.909 174.322 334.643 174.443C332.068 175.552 329.878 177.025 328.487 178.602C327.318 179.919 326.77 181.236 327.022 182.119C327.51 183.8 333.207 184.736 339.762 182.57C343.388 181.374 347.62 178.862 348.907 175.968C349.174 175.361 349.262 174.824 349.144 174.408C348.878 173.49 346.776 172.537 343.432 172.537Z" fill="#3FB1B5"/>
<path d="M335.856 233.585H333.414L327.007 182.934V182.899L326.844 181.634C327.155 179.33 330.233 176.072 335.663 173.958C338.371 172.901 341.064 172.433 343.358 172.381L345.696 179.884L345.918 180.594L353.317 204.352C357.756 218.544 348.774 233.585 335.856 233.585Z" fill="#A0505A"/>
<path d="M345.844 180.421C344.29 181.565 342.278 182.622 339.881 183.419C334.376 185.238 328.797 184.493 327.007 182.934V182.899L326.844 181.634C327.155 179.33 330.233 176.072 335.663 173.958C338.371 172.901 341.064 172.433 343.358 172.381L345.844 180.421Z" fill="#73325A"/>
<path d="M256.601 191.91L248.833 214.541C245 225.718 235.737 233.047 225.438 233.047H121.013V221.853C121.013 219.15 122.433 216.724 124.594 215.771L135.322 211.006C136.299 210.573 137.32 210.347 138.355 210.347H150.534L219.46 202.203L231.357 170.301L256.601 191.91Z" fill="#A0505A"/>
<path d="M121.457 226.584C121.205 226.584 121.013 226.359 121.013 226.064C121.013 223.794 122.182 221.801 124.002 220.987L132.096 217.4C132.318 217.296 132.584 217.435 132.673 217.695C132.762 217.954 132.644 218.266 132.422 218.37L124.327 221.957C122.863 222.616 121.901 224.227 121.901 226.064C121.901 226.359 121.708 226.584 121.457 226.584Z" fill="#73325A"/>
<path d="M121.457 232.302C121.205 232.302 121.013 232.077 121.013 231.782C121.013 229.512 122.182 227.52 124.002 226.705L132.096 223.118C132.318 223.014 132.584 223.153 132.673 223.413C132.762 223.673 132.644 223.985 132.422 224.089L124.327 227.676C122.863 228.334 121.901 229.946 121.901 231.782C121.901 232.077 121.708 232.302 121.457 232.302Z" fill="#73325A"/>
<path d="M124.165 233.048C123.987 233.048 123.809 232.909 123.75 232.701C123.661 232.424 123.78 232.129 124.017 232.043L132.111 228.629C132.347 228.525 132.599 228.663 132.673 228.941C132.762 229.218 132.643 229.513 132.407 229.599L124.312 233.013C124.268 233.03 124.209 233.048 124.165 233.048Z" fill="#73325A"/>
<path d="M131.415 212.929C131.415 212.929 138.992 190.281 141.418 190.662C143.845 191.044 134.7 211.474 134.7 211.474L131.415 212.929Z" fill="#FE5244"/>
<path d="M231.357 170.319L229.611 174.98L251.969 205.392L256.601 191.91L231.357 170.319Z" fill="#73325A"/>
<path d="M327.007 182.951L336.181 255.384L268.72 233.221L256.601 191.893L225.319 165.12L236.299 149.802C246.095 136.13 260.552 128.228 275.793 128.228H297.472C316.323 128.228 333.681 140.289 342.722 159.662L349.751 173.906C349.751 173.906 347.635 170.267 336.226 173.923C326.178 177.163 327.007 182.951 327.007 182.951Z" fill="#3FB1B5"/>
<path d="M256.601 192.083C256.572 192.083 256.527 192.083 256.498 192.066C256.261 191.997 256.113 191.719 256.172 191.442L259.679 173.628C259.738 173.351 259.975 173.178 260.212 173.247C260.448 173.316 260.596 173.594 260.537 173.871L257.03 191.685C256.986 191.927 256.808 192.083 256.601 192.083Z" fill="white"/>
<path d="M334.48 238.991C334.273 238.991 334.08 238.818 334.036 238.558L322.627 155.503C322.583 155.226 322.745 154.949 322.997 154.914C323.234 154.862 323.47 155.052 323.5 155.347L334.909 238.402C334.953 238.679 334.79 238.956 334.539 238.991C334.524 238.991 334.509 238.991 334.48 238.991Z" fill="white"/>
<path d="M336.034 255.903C335.989 255.903 335.96 255.903 335.915 255.886L268.587 233.394C268.35 233.307 268.217 233.03 268.276 232.753C268.35 232.475 268.587 232.319 268.824 232.389L336.152 254.881C336.389 254.968 336.522 255.245 336.463 255.522C336.403 255.747 336.226 255.903 336.034 255.903Z" fill="white"/>
<path d="M272.346 116.653V128.297L289.895 128.124V107.573L272.346 116.653Z" fill="#A0505A"/>
<path d="M291.316 103.986V104.297C291.316 107.417 289.303 109.947 286.64 109.947H285.604C284.938 113.031 279.019 116.635 274.817 116.635H269.919C264.562 116.635 260.463 111.004 261.336 104.8L261.573 103.119L260.123 102.166C259.294 101.612 259.058 100.347 259.635 99.4455L262.772 94.5936L263.452 89.811C264 85.8774 266.205 82.6717 269.135 81.0948C270.289 96.3264 281.772 98.1286 284.805 98.3365H286.492C289.155 98.3365 291.316 100.866 291.316 103.986Z" fill="#A0505A"/>
<path d="M283.547 105.996C283.296 105.996 283.103 105.771 283.103 105.476C283.103 102.738 285.012 100.503 287.35 100.503C287.602 100.503 287.794 100.728 287.794 101.023C287.794 101.317 287.602 101.542 287.35 101.542C285.501 101.542 283.991 103.31 283.991 105.476C283.991 105.771 283.799 105.996 283.547 105.996Z" fill="#73325A"/>
<path d="M267.507 98.4925C267.924 98.4925 268.262 97.577 268.262 96.4477C268.262 95.3185 267.924 94.403 267.507 94.403C267.09 94.403 266.752 95.3185 266.752 96.4477C266.752 97.577 267.09 98.4925 267.507 98.4925Z" fill="#73325A"/>
<path d="M270.585 93.8658C270.452 93.8658 270.318 93.7964 270.23 93.6578C268.261 90.4694 266.427 90.6427 266.397 90.6427C266.145 90.6773 265.938 90.4694 265.909 90.1748C265.879 89.8976 266.057 89.6376 266.308 89.603C266.397 89.5857 268.676 89.3777 270.94 93.034C271.088 93.2593 271.043 93.5885 270.836 93.7618C270.762 93.8311 270.673 93.8658 270.585 93.8658Z" fill="#73325A"/>
<path d="M284.805 98.3367H286.492C289.156 98.3367 291.316 100.867 291.316 103.986V104.298C291.316 107.417 289.304 109.947 286.64 109.947L285.501 110.882C280.706 114.487 274.077 128.661 275.705 138.694C277.54 149.975 285.93 152.488 293.684 150.755C301.437 149.022 307.09 143.737 305.255 132.439C305.048 131.105 304.708 129.77 304.278 128.453C304.412 128.505 304.53 128.557 304.663 128.609C313.986 131.59 324.936 131.936 327.954 123.411C330.973 114.885 330.292 106.446 321.222 102.045C315.954 99.4804 308.792 99.4977 303.243 101.265C306.039 89.8804 301.067 77.2134 291.937 75.9484C277.599 73.9557 269.371 80.887 269.149 81.0776C269.135 83.0877 270.304 97.349 284.805 98.3367Z" fill="#73325A"/>
<path d="M304.663 129.146C304.456 129.146 304.264 128.973 304.234 128.731C302.666 119.113 295.948 113.811 295.874 113.759C295.755 113.672 295.681 113.499 295.681 113.326C295.681 113.152 295.755 112.996 295.874 112.892C300.461 109.098 302.444 103.622 303.213 100.711C303.287 100.433 303.539 100.277 303.761 100.364C303.997 100.451 304.131 100.745 304.057 101.005C303.287 103.951 301.334 109.357 296.88 113.308C298.552 114.781 303.716 119.945 305.107 128.523C305.152 128.8 304.989 129.077 304.752 129.129C304.722 129.146 304.693 129.146 304.663 129.146Z" fill="white"/>
<path d="M307.638 101.005H303.716C303.465 101.005 303.273 100.78 303.273 100.485V95.8932C303.273 93.2073 305.137 91.0239 307.431 91.0239H307.638C309.931 91.0239 311.796 93.2073 311.796 95.8932V96.1358C311.811 97.4181 311.382 98.6484 310.597 99.5668C309.813 100.485 308.762 101.005 307.638 101.005ZM304.16 99.9654H307.638C308.526 99.9654 309.339 99.5668 309.961 98.8217C310.568 98.0939 310.908 97.1408 310.908 96.1358V95.8932C310.908 93.7791 309.443 92.0636 307.638 92.0636H307.431C305.625 92.0636 304.16 93.7791 304.16 95.8932V99.9654Z" fill="#FE5244"/>
<path d="M309.828 108.04C308.244 108.04 306.72 107.139 305.817 105.476L303.302 100.797C303.169 100.555 303.228 100.225 303.435 100.087L307.43 97.1409C308.496 96.3611 309.768 96.1012 310.996 96.4304C312.225 96.7596 313.275 97.6261 313.956 98.8737L314.193 99.3069C314.873 100.555 315.081 102.045 314.799 103.483C314.518 104.921 313.778 106.152 312.713 106.949L312.343 107.226C311.574 107.763 310.701 108.04 309.828 108.04ZM304.293 100.676L306.572 104.921C307.697 107.001 310.079 107.625 311.884 106.308L312.254 106.03C313.127 105.389 313.719 104.401 313.941 103.223C314.163 102.045 313.986 100.849 313.438 99.8268L313.201 99.3936C312.654 98.3712 311.81 97.678 310.804 97.4181C309.798 97.1582 308.777 97.3661 307.904 98.0073L304.293 100.676Z" fill="#FE5244"/>
<path d="M285.589 121.903C285.486 121.903 285.382 121.903 285.279 121.886C284.169 121.782 283.162 121.193 282.437 120.205L282.304 120.015C281.579 119.044 281.224 117.796 281.298 116.514C281.372 115.215 281.875 114.019 282.719 113.17L285.5 110.051C285.589 109.947 285.708 109.895 285.826 109.912C285.944 109.912 286.063 109.981 286.137 110.085L288.874 113.707C289.599 114.695 289.969 115.96 289.88 117.259C289.792 118.559 289.289 119.737 288.445 120.586L288.268 120.742C287.543 121.487 286.595 121.903 285.589 121.903ZM285.796 111.16L283.34 113.915L283.325 113.932C282.659 114.608 282.26 115.544 282.201 116.584C282.141 117.606 282.423 118.576 282.985 119.339C282.985 119.339 282.985 119.356 283 119.356L283.133 119.547C283.695 120.309 284.479 120.777 285.353 120.864C286.226 120.933 287.069 120.604 287.735 119.945L287.912 119.772C288.564 119.113 288.963 118.195 289.037 117.173C289.096 116.15 288.815 115.163 288.253 114.383L285.796 111.16Z" fill="#FE5244"/>
<path d="M291.257 119.997C289.185 119.997 287.276 118.386 286.684 115.942L285.427 110.623C285.367 110.345 285.501 110.068 285.737 109.981L290.28 108.509C291.493 108.11 292.766 108.301 293.861 109.011C294.956 109.739 295.755 110.917 296.095 112.338L296.214 112.841C296.554 114.262 296.391 115.752 295.785 117.034C295.163 118.316 294.157 119.252 292.944 119.651L292.514 119.789C292.085 119.945 291.671 119.997 291.257 119.997ZM287.543 115.665C288.12 118.039 290.236 119.46 292.263 118.802L292.692 118.663C293.683 118.334 294.497 117.589 295 116.549C295.504 115.509 295.622 114.296 295.356 113.135L295.237 112.633C294.956 111.472 294.32 110.519 293.432 109.929C292.544 109.34 291.508 109.202 290.517 109.514L286.403 110.848L287.543 115.665Z" fill="#FE5244"/>
<path d="M220.954 450.467C220.924 450.467 220.895 450.467 220.865 450.449C220.629 450.398 220.466 450.12 220.525 449.826L246.302 308.547C246.346 308.27 246.583 308.08 246.835 308.149C247.071 308.201 247.234 308.478 247.175 308.773L221.383 450.051C221.339 450.294 221.161 450.467 220.954 450.467Z" fill="#FFCF2D"/>
<path d="M338.475 450.467C338.268 450.467 338.09 450.294 338.046 450.051L312.269 308.773C312.224 308.495 312.372 308.218 312.609 308.149C312.846 308.097 313.083 308.27 313.142 308.547L338.919 449.826C338.963 450.103 338.815 450.38 338.578 450.449C338.534 450.467 338.504 450.467 338.475 450.467Z" fill="#FFCF2D"/>
<path d="M332.408 419.102H226.666C226.415 419.102 226.222 418.877 226.222 418.582C226.222 418.288 226.415 418.062 226.666 418.062H332.408C332.66 418.062 332.852 418.288 332.852 418.582C332.852 418.877 332.66 419.102 332.408 419.102Z" fill="#FFCF2D"/>
<path d="M332.985 308.669H226.429C225.082 308.669 223.987 307.386 223.987 305.809V298.202C223.987 296.625 225.082 295.343 226.429 295.343H332.985C334.331 295.343 335.426 296.625 335.426 298.202V305.809C335.426 307.386 334.331 308.669 332.985 308.669Z" fill="white"/>
<path d="M332.985 309.188H226.429C224.831 309.188 223.543 307.681 223.543 305.809V298.202C223.543 296.331 224.831 294.823 226.429 294.823H332.985C334.583 294.823 335.87 296.331 335.87 298.202V305.809C335.87 307.681 334.583 309.188 332.985 309.188ZM226.429 295.863C225.334 295.863 224.431 296.92 224.431 298.202V305.809C224.431 307.092 225.334 308.149 226.429 308.149H332.985C334.08 308.149 334.983 307.092 334.983 305.809V298.202C334.983 296.92 334.08 295.863 332.985 295.863H226.429Z" fill="#66B0F0"/>
</svg>
