<svg width="24" height="24" viewBox="0 0 24 24" fill="none" xmlns="http://www.w3.org/2000/svg">
<g opacity="0.5">
<path d="M16.2 10.8C17.1941 10.8 18 9.99406 18 8.99995C18 8.00584 17.1941 7.19995 16.2 7.19995C15.2059 7.19995 14.4 8.00584 14.4 8.99995C14.4 9.99406 15.2059 10.8 16.2 10.8Z" fill="#95FFE5"/>
<path d="M7.8 10.8C8.79411 10.8 9.6 9.99406 9.6 8.99995C9.6 8.00584 8.79411 7.19995 7.8 7.19995C6.80589 7.19995 6 8.00584 6 8.99995C6 9.99406 6.80589 10.8 7.8 10.8Z" fill="#95FFE5"/>
<path d="M12 19.2C14.736 19.2 17.064 17.208 18 14.4H6C6.936 17.208 9.264 19.2 12 19.2Z" fill="#95FFE5"/>
<path d="M11.988 0C5.364 0 0 5.376 0 12C0 18.624 5.364 24 11.988 24C18.624 24 24 18.624 24 12C24 5.376 18.624 0 11.988 0ZM12 21.6C6.696 21.6 2.4 17.304 2.4 12C2.4 6.696 6.696 2.4 12 2.4C17.304 2.4 21.6 6.696 21.6 12C21.6 17.304 17.304 21.6 12 21.6Z" fill="#95FFE5"/>
</g>
</svg>
