<svg width="22" height="22" fill="none" xmlns="http://www.w3.org/2000/svg"><path fill-rule="evenodd" clip-rule="evenodd" d="M11 1c5.523 0 10 4.477 10 10s-4.477 10-10 10S1 16.523 1 11 5.477 1 11 1z" fill="#E8E8EB"/><g clip-path="url(#clip0_22909_9)"><path opacity=".5" d="M12.937 16.398c-.325 0-.542-.216-.542-.541v-2.33c0-.433 0-.433-.162-.595-.163-.163-.217-.38-.109-.542.054-.217.271-.325.433-.38 1.517-.162 2.925-.65 2.925-3.087a2.17 2.17 0 00-.65-1.57c-.162-.163-.216-.38-.108-.596.108-.271.163-.488.163-.759 0-.162 0-.27-.055-.433-.27.054-.758.217-1.462.65-.108.054-.27.108-.433.054a7.966 7.966 0 00-3.575 0c-.163.054-.271 0-.434-.054-.812-.433-1.3-.596-1.57-.65 0 .162-.055.325-.055.433 0 .271.055.542.163.759a.752.752 0 01-.108.595c-.217.217-.38.488-.488.759-.108.27-.162.541-.162.866 0 2.275 1.191 2.871 2.925 3.088.216 0 .379.162.433.379.054.217 0 .433-.108.542-.163.162-.163.27-.163.758v2.167c0 .325-.217.541-.542.541-.325 0-.541-.216-.541-.541v-.542c-1.625.217-2.275-.704-2.763-1.354-.216-.271-.379-.542-.541-.596-.271-.054-.488-.38-.38-.65.109-.27.38-.488.65-.38.542.163.867.597 1.192 1.03.433.596.813 1.137 1.842.92v-.487c0-.216-.054-.487 0-.812-1.517-.325-3.088-1.192-3.088-4.008 0-.434.109-.867.271-1.246.108-.271.27-.596.488-.813-.055-.27-.109-.541-.109-.866 0-.434.109-.813.271-1.192.054-.271.163-.38.325-.38.163-.053.92-.162 2.383.705a8.207 8.207 0 013.63 0c1.462-.867 2.166-.758 2.383-.704.162.054.27.162.325.27.216.38.27.759.325 1.192 0 .271 0 .596-.109.867.488.596.759 1.3.759 2.058 0 2.871-1.625 3.738-3.088 4.063a.924.924 0 010 .541v2.33c0 .325-.27.541-.541.541z" fill="#000"/></g><defs><clipPath id="clip0_22909_9"><path fill="#fff" transform="translate(4 3.5)" d="M0 0h13v13H0z"/></clipPath></defs></svg>