<svg width="39" height="35" viewBox="0 0 39 35" fill="none" xmlns="http://www.w3.org/2000/svg">
<path fill-rule="evenodd" clip-rule="evenodd" d="M0 17.5C0 7.83502 8.5407 0 19.0762 0C29.6117 0 38.1524 7.83502 38.1524 17.5C38.1524 27.165 29.6117 35 19.0762 35C8.5407 35 0 27.165 0 17.5Z" fill="white"/>
<path d="M22.7 29.0001C22.1 29.0001 21.7 28.6001 21.7 28.0001V23.7001C21.7 22.9001 21.7 22.9001 21.4 22.6001C21.1 22.3001 21 21.9001 21.2 21.6001C21.3 21.2001 21.7 21.0001 22 20.9001C24.8 20.6001 27.4 19.7001 27.4 15.2001C27.4 14.1001 27 13.1001 26.2 12.3001C25.9 12.0001 25.8 11.6001 26 11.2001C26.2 10.7001 26.3 10.3001 26.3 9.80008C26.3 9.50008 26.3 9.30008 26.2 9.00008C25.7 9.10008 24.8 9.40008 23.5 10.2001C23.3 10.3001 23 10.4001 22.7 10.3001C20.5 9.80008 18.3 9.80008 16.1 10.3001C15.8 10.4001 15.6 10.3001 15.3 10.2001C13.8 9.40008 12.9 9.10008 12.4 9.00008C12.4 9.30008 12.3 9.60008 12.3 9.80008C12.3 10.3001 12.4 10.8001 12.6 11.2001C12.7 11.6001 12.6 12.0001 12.4 12.3001C12 12.7001 11.7 13.2001 11.5 13.7001C11.3 14.2001 11.2 14.7001 11.2 15.3001C11.2 19.5001 13.4 20.6001 16.6 21.0001C17 21.0001 17.3 21.3001 17.4 21.7001C17.5 22.1001 17.4 22.5001 17.2 22.7001C16.9 23.0001 16.9 23.2001 16.9 24.1001V25.8001V25.9001V28.1001C16.9 28.7001 16.5 29.1001 15.9 29.1001C15.3 29.1001 14.9 28.7001 14.9 28.1001V27.1001C11.9 27.5001 10.7 25.8001 9.8 24.6001C9.4 24.1001 9.1 23.6001 8.8 23.5001C8.3 23.4001 7.9 22.8001 8.1 22.3001C8.3 21.8001 8.8 21.4001 9.3 21.6001C10.3 21.9001 10.9 22.7001 11.5 23.5001C12.3 24.6001 13 25.6001 14.9 25.2001V24.3001C14.9 23.9001 14.8 23.4001 14.9 22.8001C12.1 22.2001 9.2 20.6001 9.2 15.4001C9.2 14.6001 9.4 13.8001 9.7 13.1001C9.9 12.6001 10.2 12.0001 10.6 11.6001C10.5 11.1001 10.4 10.6001 10.4 10.0001C10.4 9.20008 10.6 8.50008 10.9 7.80008C11 7.30008 11.2 7.10008 11.5 7.10008C11.8 7.00008 13.2 6.80008 15.9 8.40008C18.1 7.90008 20.4 7.90008 22.6 8.40008C25.3 6.80008 26.6 7.00008 27 7.10008C27.3 7.20008 27.5 7.40008 27.6 7.60008C28 8.30008 28.1 9.00008 28.2 9.80008C28.2 10.3001 28.2 10.9001 28 11.4001C28.9 12.5001 29.4 13.8001 29.4 15.2001C29.4 20.5001 26.4 22.1001 23.7 22.7001C23.8 23.0001 23.8 23.4001 23.7 23.7001V28.0001C23.7 28.6001 23.2 29.0001 22.7 29.0001Z" fill="#1E212C"/>
</svg>
