<svg width="39" height="35" viewBox="0 0 39 35" fill="none" xmlns="http://www.w3.org/2000/svg">
<path fill-rule="evenodd" clip-rule="evenodd" d="M19.0762 0C8.5407 0 0 7.83502 0 17.5C0 27.165 8.5407 35 19.0762 35C29.6117 35 38.1524 27.165 38.1524 17.5C38.1524 7.83502 29.6117 0 19.0762 0ZM14.882 8.22289C15.9672 8.17759 16.314 8.1665 19.0771 8.1665H19.0739C21.8378 8.1665 22.1833 8.17759 23.2686 8.22289C24.3517 8.26839 25.0914 8.4257 25.74 8.65651C26.4098 8.89471 26.9757 9.2136 27.5417 9.73277C28.1076 10.2516 28.4552 10.7723 28.7159 11.3861C28.966 11.9796 29.1377 12.6578 29.1886 13.6514C29.2374 14.647 29.2501 14.9651 29.2501 17.4999C29.2501 20.0347 29.2374 20.3521 29.1886 21.3476C29.1377 22.3409 28.966 23.0193 28.7159 23.6129C28.4552 24.2266 28.1076 24.7473 27.5417 25.2661C26.9764 25.7853 26.4096 26.105 25.7407 26.3434C25.0933 26.5742 24.3532 26.7315 23.2701 26.777C22.1848 26.8223 21.8391 26.8334 19.0758 26.8334C16.3129 26.8334 15.9663 26.8223 14.8811 26.777C13.7982 26.7315 13.0587 26.5742 12.4114 26.3434C11.7426 26.105 11.175 25.7853 10.6097 25.2661C10.044 24.7473 9.69637 24.2266 9.43629 23.6127C9.18491 23.0193 9.01343 22.3411 8.96362 21.3474C8.91445 20.3519 8.90215 20.0347 8.90215 17.4999C8.90215 14.9651 8.91487 14.6468 8.96341 13.6513C9.01216 12.658 9.18385 11.9796 9.43608 11.386C9.69679 10.7723 10.0444 10.2516 10.6103 9.73277C11.1758 9.21379 11.7435 8.8949 12.4126 8.65651C13.0595 8.4257 13.7988 8.26839 14.882 8.22289Z" fill="white"/>
<path fill-rule="evenodd" clip-rule="evenodd" d="M18.1646 9.84852C18.3418 9.84827 18.5324 9.84835 18.7382 9.84843L19.0773 9.84852C21.7937 9.84852 22.1157 9.85747 23.1884 9.90219C24.1804 9.9438 24.7188 10.0959 25.0774 10.2236C25.5522 10.3928 25.8907 10.595 26.2466 10.9217C26.6027 11.2483 26.8231 11.5595 27.0079 11.995C27.1472 12.3236 27.3132 12.8175 27.3583 13.7275C27.4071 14.7114 27.4177 15.007 27.4177 17.4979C27.4177 19.9887 27.4071 20.2843 27.3583 21.2682C27.313 22.1782 27.1472 22.6721 27.0079 23.0007C26.8235 23.4362 26.6027 23.7464 26.2466 24.0729C25.8905 24.3995 25.5524 24.6018 25.0774 24.7709C24.7192 24.8993 24.1804 25.0509 23.1884 25.0925C22.1159 25.1373 21.7937 25.147 19.0773 25.147C16.3606 25.147 16.0386 25.1373 14.9661 25.0925C13.9741 25.0505 13.4357 24.8985 13.0769 24.7707C12.6021 24.6016 12.263 24.3993 11.9069 24.0727C11.5508 23.746 11.3303 23.4357 11.1455 22.9999C11.0063 22.6713 10.8403 22.1774 10.7951 21.2674C10.7464 20.2835 10.7366 19.9879 10.7366 17.4955C10.7366 15.0031 10.7464 14.7091 10.7951 13.7252C10.8405 12.8152 11.0063 12.3213 11.1455 11.9923C11.3299 11.5567 11.5508 11.2456 11.9069 10.919C12.263 10.5923 12.6021 10.3901 13.0769 10.2205C13.4355 10.0922 13.9741 9.9405 14.9661 9.89869C15.9047 9.8598 16.2684 9.84814 18.1646 9.84619V9.84852ZM24.5078 11.3983C23.8338 11.3983 23.287 11.8994 23.287 12.518C23.287 13.1363 23.8338 13.638 24.5078 13.638C25.1819 13.638 25.7287 13.1363 25.7287 12.518C25.7287 11.8996 25.1819 11.3979 24.5078 11.3979V11.3983ZM13.8523 17.5001C13.8523 14.8532 16.1915 12.7071 19.0769 12.707C21.9623 12.707 24.301 14.8531 24.301 17.5001C24.301 20.1471 21.9625 22.2923 19.0771 22.2923C16.1917 22.2923 13.8523 20.1471 13.8523 17.5001Z" fill="white"/>
<path fill-rule="evenodd" clip-rule="evenodd" d="M19.0773 14.3889C20.9502 14.3889 22.4686 15.7817 22.4686 17.5001C22.4686 19.2182 20.9502 20.6112 19.0773 20.6112C17.2042 20.6112 15.6859 19.2182 15.6859 17.5001C15.6859 15.7817 17.2042 14.3889 19.0773 14.3889V14.3889Z" fill="white"/>
</svg>
