<svg width="22" height="20" viewBox="0 0 22 20" fill="none" xmlns="http://www.w3.org/2000/svg">
<path d="M9.69984 8.70043L3.49986 0.600427C3.09986 0.200427 2.59986 0.000427246 2.09986 0.000427246C1.59986 0.000427246 1.09986 0.200427 0.699864 0.600427C-0.000133812 1.40043 -0.000133812 2.60043 0.699864 3.40043L5.59985 10.0004L0.699864 16.6004C-0.000133812 17.4004 -0.000133812 18.6004 0.699864 19.4004C1.09986 19.8004 1.59986 20.0004 2.09986 20.0004C2.59986 20.0004 3.09986 19.8004 3.49986 19.4004L9.69984 11.3004C10.3998 10.7004 10.3998 9.50043 9.69984 8.70043Z" fill="#95FFE5"/>
<path d="M12.3427 8.70043L18.5427 0.600427C18.9427 0.200427 19.4427 0.000427246 19.9427 0.000427246C20.4427 0.000427246 20.9427 0.200427 21.3427 0.600427C22.0427 1.40043 22.0427 2.60043 21.3427 3.40043L16.4427 10.0004L21.3427 16.6004C22.0427 17.4004 22.0427 18.6004 21.3427 19.4004C20.9427 19.8004 20.4427 20.0004 19.9427 20.0004C19.4427 20.0004 18.9427 19.8004 18.5427 19.4004L12.3427 11.3004C11.6427 10.7004 11.6427 9.50043 12.3427 8.70043Z" fill="#95FFE5"/>
</svg>
