<svg width="20" height="20" viewBox="0 0 20 20" fill="none" xmlns="http://www.w3.org/2000/svg">
<path fill-rule="evenodd" clip-rule="evenodd" d="M10.0001 2.70832C8.3893 2.70832 7.08347 4.01416 7.08347 5.62499C7.08347 7.23582 8.3893 8.54166 10.0001 8.54166C11.611 8.54166 12.9168 7.23582 12.9168 5.62499C12.9168 4.01416 11.611 2.70832 10.0001 2.70832ZM5.4168 5.62499C5.4168 3.09368 7.46883 1.04166 10.0001 1.04166C12.5314 1.04166 14.5835 3.09368 14.5835 5.62499C14.5835 8.1563 12.5314 10.2083 10.0001 10.2083C7.46883 10.2083 5.4168 8.1563 5.4168 5.62499Z" fill="white"/>
<path fill-rule="evenodd" clip-rule="evenodd" d="M5.08685 12.7083C4.50908 12.7083 4.05749 12.9897 3.87418 13.3938C3.62047 13.9533 3.39072 14.6193 3.3365 15.251C3.31226 15.5333 3.43 15.7414 3.59224 15.8422C4.44987 16.375 6.43713 17.2917 10.0001 17.2917C13.5631 17.2917 15.5504 16.375 16.408 15.8422C16.5703 15.7414 16.688 15.5333 16.6638 15.251C16.6096 14.6193 16.3798 13.9533 16.1261 13.3938C15.9428 12.9897 15.4912 12.7083 14.9134 12.7083H5.08685ZM2.35632 12.7054C2.86294 11.5884 3.99422 11.0417 5.08685 11.0417H14.9134C16.006 11.0417 17.1373 11.5884 17.6439 12.7055C17.9349 13.3471 18.2472 14.2096 18.3243 15.1084C18.3946 15.927 18.0544 16.7816 17.2875 17.258C16.1596 17.9587 13.8665 18.9583 10.0001 18.9583C6.1338 18.9583 3.84072 17.9587 2.71277 17.258C1.94589 16.7816 1.60569 15.927 1.67594 15.1084C1.75309 14.2096 2.06534 13.3471 2.35632 12.7054Z" fill="white"/>
</svg>
