<svg width="39" height="35" viewBox="0 0 39 35" fill="none" xmlns="http://www.w3.org/2000/svg">
<path fill-rule="evenodd" clip-rule="evenodd" d="M0 17.5C0 7.83502 8.5407 0 19.0762 0C29.6117 0 38.1524 7.83502 38.1524 17.5C38.1524 27.165 29.6117 35 19.0762 35C8.5407 35 0 27.165 0 17.5Z" fill="white"/>
<path d="M16.6326 21.1813L16.2687 26.7653C16.7894 26.7653 17.0149 26.5213 17.2853 26.2283L19.7264 23.6833L24.7847 27.7243C25.7124 28.2883 26.366 27.9913 26.6163 26.7933L29.9365 9.8214L29.9374 9.8204C30.2317 8.3244 29.4415 7.73941 28.5377 8.1064L9.02135 16.2574C7.68941 16.8214 7.70957 17.6314 8.79493 17.9984L13.7845 19.6913L25.3742 11.7804C25.9196 11.3864 26.4155 11.6044 26.0076 11.9984L16.6326 21.1813Z" fill="#1E212C"/>
</svg>
