<svg width="42" height="42" viewBox="0 0 42 42" fill="none" xmlns="http://www.w3.org/2000/svg">
<circle cx="21" cy="21" r="21" fill="#272727"/>
<path d="M5.53247 18.7L11.8203 10.6C12.2259 10.2 12.733 9.99998 13.2401 9.99998C13.7472 9.99998 14.2543 10.2 14.6599 10.6C15.3698 11.4 15.3698 12.6 14.6599 13.4L9.69054 20L14.6599 26.6C15.3698 27.4 15.3698 28.6 14.6599 29.4C14.2543 29.8 13.7472 30 13.2401 30C12.733 30 12.2259 29.8 11.8203 29.4L5.53247 21.3C4.82256 20.7 4.82256 19.5 5.53247 18.7Z" fill="#95FFE5"/>
<path d="M36.6599 21.3L30.372 29.4C29.9664 29.8 29.4593 30 28.9522 30C28.4451 30 27.9381 29.8 27.5324 29.4C26.8225 28.6 26.8225 27.4 27.5324 26.6L32.5018 20L27.5324 13.4C26.8225 12.6 26.8225 11.4 27.5324 10.6C27.9381 10.2 28.4451 10 28.9522 10C29.4593 10 29.9664 10.2 30.372 10.6L36.6599 18.7C37.3698 19.3 37.3698 20.5 36.6599 21.3Z" fill="#95FFE5"/>
</svg>
