<svg width="71" height="73" fill="none" xmlns="http://www.w3.org/2000/svg"><g opacity=".1" filter="url(#filter0_d_0_312)"><path fill-rule="evenodd" clip-rule="evenodd" d="M35.973 16.5c11.193 0 20.267 8.954 20.267 20s-9.074 20-20.267 20-20.266-8.954-20.266-20 9.073-20 20.266-20z" fill="#fff"/></g><path opacity=".8" fill-rule="evenodd" clip-rule="evenodd" d="M42.053 37.5h-5.066v5c0 .552-.454 1-1.014 1s-1.013-.448-1.013-1v-5h-5.067c-.56 0-1.013-.448-1.013-1s.454-1 1.013-1h5.067v-5c0-.552.454-1 1.013-1 .56 0 1.014.448 1.014 1v5h5.066c.56 0 1.014.448 1.014 1s-.454 1-1.014 1z" fill="#95FFE5"/><defs><filter id="filter0_d_0_312" x="-2.293" y=".5" width="72.533" height="72" filterUnits="userSpaceOnUse" color-interpolation-filters="sRGB"><feFlood flood-opacity="0" result="BackgroundImageFix"/><feColorMatrix in="SourceAlpha" values="0 0 0 0 0 0 0 0 0 0 0 0 0 0 0 0 0 0 127 0" result="hardAlpha"/><feOffset dx="-2"/><feGaussianBlur stdDeviation="8"/><feColorMatrix values="0 0 0 0 0 0 0 0 0 0 0 0 0 0 0 0 0 0 0.16 0"/><feBlend in2="BackgroundImageFix" result="effect1_dropShadow_0_312"/><feBlend in="SourceGraphic" in2="effect1_dropShadow_0_312" result="shape"/></filter></defs></svg>