<svg width="14" height="20" fill="none" xmlns="http://www.w3.org/2000/svg"><path opacity=".4" fill-rule="evenodd" clip-rule="evenodd" d="M5.523 20a.62.62 0 01-.614-.625.62.62 0 01.614-.625h.613v-1.278C3.106 17.193.542 14.874 0 11.875h1.227c.559 2.504 2.895 4.375 5.523 4.375 2.628 0 4.964-1.87 5.523-4.375H13.5c-.542 3-3.107 5.319-6.136 5.597v1.278h.613a.62.62 0 01.614.625.62.62 0 01-.614.625H5.523zm1.227-5c-2.372 0-4.295-1.959-4.295-4.375v-6.25C2.455 1.96 4.378 0 6.75 0s4.296 1.959 4.296 4.375v6.25C11.046 13.041 9.122 15 6.75 15zM9.818 4.375c0-1.726-1.373-3.125-3.068-3.125-1.694 0-3.068 1.4-3.068 3.125v6.25c0 1.726 1.374 3.125 3.068 3.125 1.695 0 3.068-1.399 3.068-3.125v-6.25z" fill="#95FFE5"/></svg>