<svg width="39" height="35" fill="none" xmlns="http://www.w3.org/2000/svg"><path fill-rule="evenodd" clip-rule="evenodd" d="M0 17.5C0 7.835 8.54 0 19.076 0c10.536 0 19.076 7.835 19.076 17.5S29.612 35 19.076 35C8.541 35 0 27.165 0 17.5z" fill="#fff"/><path d="M16.633 21.181l-.364 5.584c.52 0 .746-.244 1.016-.537l2.441-2.545 5.059 4.041c.927.564 1.581.267 1.831-.93l3.32-16.973h.001c.295-1.497-.495-2.082-1.4-1.715L9.022 16.257c-1.332.564-1.311 1.374-.226 1.741l4.99 1.693 11.59-7.91c.545-.395 1.04-.177.633.217l-9.375 9.183z" fill="#1E212C"/></svg>