<svg width="17" height="18" viewBox="0 0 17 18" fill="none" xmlns="http://www.w3.org/2000/svg">
<path fill-rule="evenodd" clip-rule="evenodd" d="M12.1369 0.46967C11.9963 0.329018 11.8055 0.25 11.6066 0.25C11.4077 0.25 11.2169 0.329018 11.0763 0.46967L1.88388 9.66206C1.78965 9.75628 1.72223 9.87391 1.68856 10.0028L0.688556 13.8313C0.621266 14.0889 0.695605 14.3629 0.88388 14.5511C1.07215 14.7394 1.34614 14.8138 1.60375 14.7465L5.43218 13.7465C5.56111 13.7128 5.67874 13.6454 5.77297 13.5511L14.9654 4.35876C15.2582 4.06586 15.2582 3.59099 14.9654 3.2981L12.1369 0.46967ZM3.08843 10.5788L11.6066 2.06066L13.3744 3.82843L4.8562 12.3466L2.46344 12.9716L3.08843 10.5788Z" fill="#BBBBBB"/>
<path d="M1 16.25C0.585786 16.25 0.25 16.5858 0.25 17C0.25 17.4142 0.585786 17.75 1 17.75H16C16.4142 17.75 16.75 17.4142 16.75 17C16.75 16.5858 16.4142 16.25 16 16.25H1Z" fill="#BBBBBB"/>
</svg>
