<svg width="39" height="35" fill="none" xmlns="http://www.w3.org/2000/svg"><path fill-rule="evenodd" clip-rule="evenodd" d="M0 17.5C0 7.835 8.54 0 19.076 0c10.536 0 19.076 7.835 19.076 17.5S29.612 35 19.076 35C8.541 35 0 27.165 0 17.5z" fill="#95FFE5"/><path d="M22.7 29c-.6 0-1-.4-1-1v-4.3c0-.8 0-.8-.3-1.1-.3-.3-.4-.7-.2-1 .1-.4.5-.6.8-.7 2.8-.3 5.4-1.2 5.4-5.7 0-1.1-.4-2.1-1.2-2.9-.3-.3-.4-.7-.2-1.1.2-.5.3-.9.3-1.4 0-.3 0-.5-.1-.8-.5.1-1.4.4-2.7 1.2-.2.1-.5.2-.8.1-2.2-.5-4.4-.5-6.6 0-.3.1-.5 0-.8-.1-1.5-.8-2.4-1.1-2.9-1.2 0 .3-.1.6-.1.8 0 .5.1 1 .3 1.4.1.4 0 .8-.2 1.1-.4.4-.7.9-.9 1.4-.2.5-.3 1-.3 1.6 0 4.2 2.2 5.3 5.4 5.7.4 0 .7.3.8.7.1.4 0 .8-.2 1-.3.3-.3.5-.3 1.4v4c0 .6-.4 1-1 1s-1-.4-1-1v-1c-3 .4-4.2-1.3-5.1-2.5-.4-.5-.7-1-1-1.1-.5-.1-.9-.7-.7-1.2.2-.5.7-.9 1.2-.7 1 .3 1.6 1.1 2.2 1.9.8 1.1 1.5 2.1 3.4 1.7v-.9c0-.4-.1-.9 0-1.5-2.8-.6-5.7-2.2-5.7-7.4 0-.8.2-1.6.5-2.3.2-.5.5-1.1.9-1.5-.1-.5-.2-1-.2-1.6 0-.8.2-1.5.5-2.2.1-.5.3-.7.6-.7.3-.1 1.7-.3 4.4 1.3 2.2-.5 4.5-.5 6.7 0 2.7-1.6 4-1.4 4.4-1.3.3.1.5.3.6.5.4.7.5 1.4.6 2.2 0 .5 0 1.1-.2 1.6.9 1.1 1.4 2.4 1.4 3.8 0 5.3-3 6.9-5.7 7.5.1.3.1.7 0 1V28c0 .6-.5 1-1 1z" fill="#1E212C"/></svg>