<svg width="39" height="35" fill="none" xmlns="http://www.w3.org/2000/svg"><path fill-rule="evenodd" clip-rule="evenodd" d="M19.076 0C8.541 0 0 7.835 0 17.5S8.54 35 19.076 35c10.536 0 19.076-7.835 19.076-17.5S29.612 0 19.076 0zm-4.194 8.223c1.085-.045 1.432-.057 4.195-.057h-.003c2.764 0 3.11.012 4.195.057 1.083.045 1.822.203 2.471.434a5.04 5.04 0 011.802 1.076c.566.519.913 1.04 1.174 1.653.25.594.422 1.272.473 2.265.048.996.061 1.314.061 3.849s-.013 2.852-.061 3.848c-.051.993-.223 1.671-.473 2.265a4.563 4.563 0 01-1.174 1.653 5.044 5.044 0 01-1.801 1.077c-.648.231-1.388.389-2.47.434-1.086.045-1.432.056-4.195.056-2.763 0-3.11-.01-4.195-.056-1.083-.046-1.822-.203-2.47-.434a5.047 5.047 0 01-1.801-1.077 4.554 4.554 0 01-1.174-1.653c-.251-.594-.423-1.272-.472-2.266-.05-.995-.062-1.312-.062-3.847s.013-2.853.061-3.849c.05-.993.22-1.671.473-2.265a4.563 4.563 0 011.174-1.653 5.05 5.05 0 011.803-1.076c.646-.231 1.386-.389 2.469-.434z" fill="#95FFE5"/><path fill-rule="evenodd" clip-rule="evenodd" d="M18.165 9.849h.913c2.716 0 3.038.008 4.11.053.992.042 1.53.194 1.89.322.474.169.813.371 1.169.698.356.326.576.637.76 1.073.14.329.306.823.351 1.732.05.984.06 1.28.06 3.77 0 2.492-.01 2.787-.06 3.771-.045.91-.21 1.404-.35 1.733a2.876 2.876 0 01-.761 1.072 3.187 3.187 0 01-1.17.698c-.358.128-.897.28-1.889.322-1.072.044-1.394.054-4.11.054-2.717 0-3.04-.01-4.112-.054-.992-.043-1.53-.195-1.89-.322a3.192 3.192 0 01-1.17-.698 2.882 2.882 0 01-.76-1.073c-.14-.329-.306-.823-.35-1.733-.05-.983-.06-1.28-.06-3.771 0-2.493.01-2.787.06-3.77.045-.91.21-1.405.35-1.734a2.88 2.88 0 01.76-1.073 3.198 3.198 0 011.17-.699c.36-.128.898-.28 1.89-.321.939-.04 1.302-.05 3.199-.053v.003zm6.343 1.55c-.674 0-1.221.5-1.221 1.119 0 .618.547 1.12 1.22 1.12.675 0 1.222-.502 1.222-1.12 0-.618-.547-1.12-1.221-1.12zM13.852 17.5c0-2.647 2.34-4.793 5.225-4.793S24.3 14.853 24.3 17.5c0 2.647-2.338 4.792-5.224 4.792-2.885 0-5.225-2.145-5.225-4.792z" fill="#95FFE5"/><path fill-rule="evenodd" clip-rule="evenodd" d="M19.077 14.389c1.873 0 3.392 1.393 3.392 3.111 0 1.718-1.519 3.111-3.392 3.111s-3.391-1.393-3.391-3.11c0-1.72 1.518-3.112 3.391-3.112z" fill="#95FFE5"/></svg>