<svg width="20" height="20" fill="none" xmlns="http://www.w3.org/2000/svg"><path fill-rule="evenodd" clip-rule="evenodd" d="M10 2.708a2.917 2.917 0 100 5.834 2.917 2.917 0 000-5.834zM5.417 5.625a4.583 4.583 0 119.166 0 4.583 4.583 0 01-9.166 0zM5.087 12.708c-.578 0-1.03.282-1.213.686-.254.56-.483 1.225-.538 1.857-.024.282.094.49.256.591.858.533 2.845 1.45 6.408 1.45s5.55-.917 6.408-1.45c.162-.1.28-.309.256-.591-.054-.632-.284-1.298-.538-1.857-.183-.404-.635-.686-1.213-.686H5.087zm-2.73-.003c.506-1.117 1.637-1.663 2.73-1.663h9.826c1.093 0 2.224.546 2.73 1.664.292.641.604 1.504.681 2.402.07.819-.27 1.674-1.037 2.15-1.127.7-3.42 1.7-7.287 1.7-3.866 0-6.16-1-7.287-1.7-.767-.476-1.107-1.331-1.037-2.15.077-.898.39-1.76.68-2.403z" fill="#fff"/></svg>