<svg width="13" height="14" fill="none" xmlns="http://www.w3.org/2000/svg"><path opacity=".5" fill-rule="evenodd" clip-rule="evenodd" d="M12.125 13.242a.36.36 0 01-.534 0L8.565 9.996a4.69 4.69 0 01-3.091 1.177C2.76 11.173.562 8.814.562 5.905c0-2.91 2.2-5.269 4.912-5.269 2.712 0 4.911 2.359 4.911 5.269a5.46 5.46 0 01-1.274 3.53l3.014 3.234a.426.426 0 010 .573zM5.474 1.447c-2.296 0-4.156 1.996-4.156 4.458s1.86 4.457 4.156 4.457c2.295 0 4.155-1.995 4.155-4.457 0-2.462-1.86-4.458-4.155-4.458z" fill="#fff"/></svg>