<svg width="14" height="14" fill="none" xmlns="http://www.w3.org/2000/svg"><path opacity=".6" fill-rule="evenodd" clip-rule="evenodd" d="M13.537 5.35l-1.084.63c.06.332.1.67.1 1.02s-.04.688-.1 1.02l1.084.63a.938.938 0 01.339 1.275l-.926 1.617a.922.922 0 01-1.264.341l-1.095-.637a5.539 5.539 0 01-1.74 1.029v.791a.93.93 0 01-.926.934h-1.85a.93.93 0 01-.926-.934v-.791a5.54 5.54 0 01-1.74-1.03l-1.095.638a.922.922 0 01-1.264-.341L.124 9.925A.938.938 0 01.463 8.65l1.084-.63a5.63 5.63 0 01-.1-1.02c0-.35.039-.688.1-1.02L.463 5.35a.938.938 0 01-.339-1.275l.926-1.617a.921.921 0 011.264-.341l1.095.637a5.534 5.534 0 011.74-1.029V.933A.93.93 0 016.074 0h1.851a.93.93 0 01.926.933v.792c.646.231 1.228.59 1.74 1.03l1.095-.638a.921.921 0 011.264.341l.926 1.617a.938.938 0 01-.34 1.275zm-.695-1.213l-.462-.808a.46.46 0 00-.633-.17l-1.285.748a4.611 4.611 0 00-2.537-1.48V1.4a.465.465 0 00-.462-.467h-.926a.465.465 0 00-.463.467v1.027a4.61 4.61 0 00-2.536 1.48l-1.286-.749a.46.46 0 00-.632.171l-.463.808a.469.469 0 00.17.638l1.29.751A4.67 4.67 0 002.373 7c0 .516.092 1.01.246 1.473l-1.291.752a.469.469 0 00-.17.638l.463.808c.128.223.41.3.632.17l1.286-.748a4.611 4.611 0 002.536 1.48V12.6c0 .258.207.466.463.466h.926a.465.465 0 00.462-.466v-1.027a4.611 4.611 0 002.537-1.48l1.286.748a.46.46 0 00.632-.17l.462-.808a.469.469 0 00-.169-.638l-1.291-.752c.154-.464.246-.957.246-1.473 0-.517-.092-1.01-.246-1.474l1.291-.751a.469.469 0 00.17-.638zM7 9.333A2.324 2.324 0 014.686 7 2.324 2.324 0 017 4.667 2.324 2.324 0 019.314 7 2.324 2.324 0 017 9.333zM7 5.6c-.767 0-1.389.627-1.389 1.4 0 .773.622 1.4 1.389 1.4S8.388 7.773 8.388 7c0-.773-.621-1.4-1.388-1.4z" fill="#fff"/></svg>