<svg width="18" height="21" viewBox="0 0 18 21" fill="none" xmlns="http://www.w3.org/2000/svg">
<path d="M8.81582 2.16668C12.5585 2.16668 15.6053 5.90626 15.6053 10.5C15.6053 15.0938 12.5585 18.8333 8.81582 18.8333C5.07312 18.8333 2.02635 15.0938 2.02635 10.5C2.02635 5.90626 5.07312 2.16668 8.81582 2.16668ZM8.81582 0.0833435C4.13108 0.0833435 0.328979 4.75001 0.328979 10.5C0.328979 16.25 4.13108 20.9167 8.81582 20.9167C13.5006 20.9167 17.3027 16.25 17.3027 10.5C17.3027 4.75001 13.5006 0.0833435 8.81582 0.0833435ZM9.66451 10.5V6.33334H7.96714V10.5H5.42108L8.81582 14.6667L12.2106 10.5H9.66451Z" fill="#F3F3F3"/>
</svg>
