<svg width="20" height="17" viewBox="0 0 20 17" fill="none" xmlns="http://www.w3.org/2000/svg">
<path fill-rule="evenodd" clip-rule="evenodd" d="M6.24997 9C6.24997 6.92893 7.92891 5.25 9.99997 5.25C12.071 5.25 13.75 6.92893 13.75 9C13.75 11.0711 12.071 12.75 9.99997 12.75C7.92891 12.75 6.24997 11.0711 6.24997 9ZM9.99997 6.75C8.75733 6.75 7.74997 7.75736 7.74997 9C7.74997 10.2426 8.75733 11.25 9.99997 11.25C11.2426 11.25 12.25 10.2426 12.25 9C12.25 7.75736 11.2426 6.75 9.99997 6.75Z" fill="#BBBBBB"/>
<path fill-rule="evenodd" clip-rule="evenodd" d="M8.61611 1.75C7.57094 1.75 6.72366 2.59728 6.72366 3.64245C6.72366 4.30841 6.21243 4.86283 5.54866 4.91674L3.31906 5.09782C2.88129 5.13337 2.52126 5.45709 2.43955 5.88864C1.99081 8.25864 1.95735 10.6886 2.34066 13.0701L2.43791 13.6743C2.52976 14.2449 2.99939 14.679 3.57545 14.7258L5.51777 14.8835C8.501 15.1258 11.4989 15.1258 14.4822 14.8835L16.4245 14.7258C17.0006 14.679 17.4702 14.2449 17.562 13.6743L17.6593 13.0701C18.0426 10.6886 18.0091 8.25864 17.5604 5.88864C17.4787 5.45709 17.1187 5.13337 16.6809 5.09782L14.4513 4.91674C13.7875 4.86284 13.2763 4.30841 13.2763 3.64245C13.2763 2.59728 12.429 1.75 11.3838 1.75H8.61611ZM5.22973 3.4377C5.33559 1.65944 6.81125 0.25 8.61611 0.25H11.3838C13.1887 0.25 14.6644 1.65944 14.7702 3.4377L16.8023 3.60274C17.9132 3.69296 18.8269 4.51446 19.0342 5.60958C19.5153 8.15035 19.5512 10.7554 19.1402 13.3084L19.043 13.9126C18.8414 15.1652 17.8104 16.1182 16.5459 16.2209L14.6036 16.3786C11.5396 16.6274 8.46039 16.6274 5.39635 16.3786L3.45403 16.2209C2.1895 16.1182 1.15858 15.1652 0.956974 13.9126L0.859723 13.3084C0.44879 10.7554 0.484661 8.15035 0.965736 5.60958C1.17309 4.51446 2.08672 3.69296 3.19764 3.60274L5.22973 3.4377Z" fill="#BBBBBB"/>
</svg>
